<svg xmlns="http://www.w3.org/2000/svg" xmlns:xlink="http://www.w3.org/1999/xlink" width="1366" zoomAndPan="magnify" viewBox="0 0 1024.5 576" height="768" preserveAspectRatio="xMidYMid meet" version="1.0"><defs><g/><clipPath id="6eac9b6643"><path d="M 0 0.140625 L 1024 0.140625 L 1024 575.859375 L 0 575.859375 Z M 0 0.140625 " clip-rule="nonzero"/></clipPath><clipPath id="17cec61210"><path d="M 0 262 L 822 262 L 822 575.859375 L 0 575.859375 Z M 0 262 " clip-rule="nonzero"/></clipPath><clipPath id="87cf2ebdee"><path d="M -287.03125 262.1875 L 821.433594 885.527344 L 555.472656 1358.472656 L -552.992188 735.132812 Z M -287.03125 262.1875 " clip-rule="nonzero"/></clipPath><clipPath id="c9a3f23d37"><path d="M -287.03125 262.1875 L 821.101562 885.339844 L 555.140625 1358.285156 L -552.992188 735.132812 Z M -287.03125 262.1875 " clip-rule="nonzero"/></clipPath><clipPath id="39163fa397"><path d="M 0 0.140625 L 1024 0.140625 L 1024 575.859375 L 0 575.859375 Z M 0 0.140625 " clip-rule="nonzero"/></clipPath><clipPath id="e173aacb42"><path d="M -220.875 -283.832031 L 1100.808594 478.019531 L 775.210938 1042.882812 L -546.476562 281.03125 Z M -220.875 -283.832031 " clip-rule="nonzero"/></clipPath><clipPath id="12bb7d0ecb"><path d="M -220.875 -283.832031 L 1099.488281 477.257812 L 773.890625 1042.121094 L -546.476562 281.03125 Z M -220.875 -283.832031 " clip-rule="nonzero"/></clipPath></defs><g clip-path="url(#6eac9b6643)"><path fill="#ffffff" d="M 0 0.140625 L 1024 0.140625 L 1024 575.859375 L 0 575.859375 Z M 0 0.140625 " fill-opacity="1" fill-rule="nonzero"/><path fill="#418ebf" d="M 0 0.140625 L 1024 0.140625 L 1024 575.859375 L 0 575.859375 Z M 0 0.140625 " fill-opacity="1" fill-rule="nonzero"/></g><g clip-path="url(#17cec61210)"><g clip-path="url(#87cf2ebdee)"><g clip-path="url(#c9a3f23d37)"><path fill="#2385c4" d="M -287.03125 262.1875 L 821.433594 885.527344 L 555.472656 1358.472656 L -552.992188 735.132812 Z M -287.03125 262.1875 " fill-opacity="1" fill-rule="nonzero"/></g></g></g><g clip-path="url(#39163fa397)"><g clip-path="url(#e173aacb42)"><g clip-path="url(#12bb7d0ecb)"><path fill="#2385c4" d="M -220.875 -283.832031 L 1098.601562 476.75 L 773.003906 1041.609375 L -546.476562 281.03125 Z M -220.875 -283.832031 " fill-opacity="1" fill-rule="nonzero"/></g></g></g><g fill="#f4f4f4" fill-opacity="1"><g transform="translate(114.948449, 80.201436)"><g><path d="M 2.316406 0 L 5.421875 0 L 5.421875 -12.617188 L 12.960938 0 L 16.191406 0 L 16.191406 -17.988281 L 13.085938 -17.988281 L 13.085938 -5.398438 L 5.523438 -17.988281 L 2.316406 -17.988281 Z M 2.316406 0 "/></g></g></g><g fill="#f4f4f4" fill-opacity="1"><g transform="translate(133.451095, 80.201436)"><g><path d="M 7.167969 0.253906 C 11.101562 0.253906 13.683594 -2.789062 13.683594 -6.390625 C 13.683594 -9.980469 11.101562 -12.984375 7.167969 -12.984375 C 3.234375 -12.984375 0.648438 -9.980469 0.648438 -6.390625 C 0.648438 -2.789062 3.234375 0.253906 7.167969 0.253906 Z M 7.167969 -2.417969 C 4.824219 -2.417969 3.882812 -4.304688 3.882812 -6.390625 C 3.882812 -8.480469 4.824219 -10.300781 7.167969 -10.300781 C 9.523438 -10.300781 10.453125 -8.480469 10.453125 -6.390625 C 10.453125 -4.304688 9.523438 -2.417969 7.167969 -2.417969 Z M 7.167969 -2.417969 "/></g></g></g><g fill="#f4f4f4" fill-opacity="1"><g transform="translate(147.80528, 80.201436)"><g><path d="M 6.367188 0.253906 C 7.242188 0.253906 8.1875 0.0507812 8.65625 -0.128906 L 8.65625 -2.941406 C 8.238281 -2.738281 7.535156 -2.484375 6.886719 -2.484375 C 6.074219 -2.484375 5.449219 -2.839844 5.449219 -4.0625 L 5.449219 -10.121094 L 8.65625 -10.121094 L 8.65625 -12.71875 L 5.449219 -12.71875 L 5.449219 -18.089844 L 2.417969 -15.875 L 2.417969 -12.71875 L 0.316406 -12.71875 L 0.316406 -10.121094 L 2.367188 -10.121094 L 2.367188 -3.511719 C 2.367188 -1.195312 3.855469 0.253906 6.367188 0.253906 Z M 6.367188 0.253906 "/></g></g></g><g fill="#f4f4f4" fill-opacity="1"><g transform="translate(157.400187, 80.201436)"><g><path d="M 7.140625 0.253906 C 9.28125 0.253906 10.972656 -0.496094 12.363281 -2.035156 L 10.222656 -3.910156 C 9.332031 -2.914062 8.3125 -2.558594 7.167969 -2.558594 C 5.167969 -2.558594 4.253906 -3.679688 3.984375 -5.347656 L 12.71875 -5.347656 C 12.78125 -5.523438 12.832031 -6.046875 12.832031 -6.570312 C 12.832031 -9.40625 11.394531 -12.984375 6.9375 -12.984375 C 2.636719 -12.984375 0.699219 -9.625 0.699219 -6.3125 C 0.699219 -2.890625 2.761719 0.253906 7.140625 0.253906 Z M 3.984375 -7.585938 C 4.277344 -9.179688 5.078125 -10.375 6.914062 -10.375 C 8.53125 -10.375 9.574219 -9.40625 9.777344 -7.585938 Z M 3.984375 -7.585938 "/></g></g></g><g fill="#f4f4f4" fill-opacity="1"><g transform="translate(170.978131, 80.201436)"><g><path d="M 5.679688 0.253906 C 8.082031 0.253906 10.644531 -1.042969 10.644531 -3.984375 C 10.644531 -8.65625 4.175781 -7.511719 4.175781 -9.433594 C 4.175781 -10.03125 4.800781 -10.527344 5.816406 -10.527344 C 7.191406 -10.527344 7.90625 -9.699219 8.339844 -8.910156 L 10.746094 -10.222656 C 9.777344 -11.941406 8.109375 -12.984375 5.917969 -12.984375 C 3.460938 -12.984375 1.195312 -11.710938 1.195312 -9.027344 C 1.195312 -4.53125 7.585938 -5.96875 7.585938 -3.832031 C 7.585938 -3.15625 6.964844 -2.316406 5.523438 -2.316406 C 3.832031 -2.316406 3.15625 -3.488281 2.8125 -4.40625 L 0.34375 -3.308594 C 0.96875 -1.347656 3.003906 0.253906 5.679688 0.253906 Z M 5.679688 0.253906 "/></g></g></g><g fill="#f4f4f4" fill-opacity="1"><g transform="translate(182.545472, 80.201436)"><g/></g></g><g fill="#f4f4f4" fill-opacity="1"><g transform="translate(188.80634, 80.201436)"><g><path d="M 5.320312 0.253906 C 6.835938 0.253906 8.1875 -0.230469 9.28125 -1.820312 L 9.484375 0 L 12.042969 0 L 12.042969 -7.714844 C 12.042969 -10.820312 10.007812 -12.984375 6.542969 -12.984375 C 4.035156 -12.984375 2.417969 -11.863281 1.195312 -10.195312 L 3.578125 -8.480469 C 4.125 -9.40625 5.105469 -10.273438 6.570312 -10.273438 C 8.210938 -10.273438 9.078125 -9.203125 9.078125 -7.585938 L 5.765625 -7.585938 C 2.914062 -7.585938 0.699219 -6.671875 0.699219 -3.910156 C 0.699219 -1.246094 2.710938 0.253906 5.320312 0.253906 Z M 5.765625 -2.367188 C 4.558594 -2.367188 3.882812 -2.964844 3.882812 -3.804688 C 3.882812 -4.609375 4.53125 -5.347656 5.945312 -5.347656 L 9.078125 -5.347656 C 9.027344 -3.753906 7.535156 -2.367188 5.765625 -2.367188 Z M 5.765625 -2.367188 "/></g></g></g><g fill="#f4f4f4" fill-opacity="1"><g transform="translate(202.307932, 80.201436)"><g><path d="M 1.847656 0 L 4.925781 0 L 4.925781 -6.964844 C 4.925781 -9.179688 6.046875 -10.121094 7.792969 -10.121094 C 9.382812 -10.121094 10.222656 -8.910156 10.222656 -7.242188 L 10.222656 0 L 13.289062 0 L 13.289062 -7.636719 C 13.289062 -10.300781 12.019531 -12.984375 8.683594 -12.984375 C 7.433594 -12.984375 5.945312 -12.488281 4.925781 -11.242188 L 4.925781 -12.71875 L 1.847656 -12.71875 Z M 1.847656 0 "/></g></g></g><g fill="#f4f4f4" fill-opacity="1"><g transform="translate(217.082059, 80.201436)"><g><path d="M 9.878906 -17.988281 L 9.878906 -11.445312 C 9 -12.539062 7.585938 -12.984375 6.261719 -12.984375 C 2.738281 -12.984375 0.800781 -9.878906 0.800781 -6.367188 C 0.800781 -2.8125 2.738281 0.253906 6.3125 0.253906 C 7.726562 0.253906 9.128906 -0.230469 10.007812 -1.425781 L 10.144531 0 L 13.035156 0 L 13.035156 -17.988281 Z M 7.066406 -2.558594 C 4.925781 -2.558594 3.960938 -4.226562 3.960938 -6.367188 C 3.960938 -8.480469 4.925781 -10.171875 7.066406 -10.171875 C 9.203125 -10.171875 10.144531 -8.503906 10.144531 -6.367188 C 10.144531 -4.199219 9.203125 -2.558594 7.066406 -2.558594 Z M 7.066406 -2.558594 "/></g></g></g><g fill="#f4f4f4" fill-opacity="1"><g transform="translate(231.983439, 80.201436)"><g/></g></g><g fill="#f4f4f4" fill-opacity="1"><g transform="translate(238.244306, 80.201436)"><g><path d="M 2.316406 0 L 5.421875 0 L 5.421875 -13.457031 L 9.878906 -1.566406 L 13.011719 -1.566406 L 17.464844 -13.457031 L 17.464844 0 L 20.574219 0 L 20.574219 -17.988281 L 16.21875 -17.988281 L 11.445312 -5.195312 L 6.671875 -17.988281 L 2.316406 -17.988281 Z M 2.316406 0 "/></g></g></g><g fill="#f4f4f4" fill-opacity="1"><g transform="translate(261.124469, 80.201436)"><g><path d="M 5.320312 0.253906 C 6.835938 0.253906 8.1875 -0.230469 9.28125 -1.820312 L 9.484375 0 L 12.042969 0 L 12.042969 -7.714844 C 12.042969 -10.820312 10.007812 -12.984375 6.542969 -12.984375 C 4.035156 -12.984375 2.417969 -11.863281 1.195312 -10.195312 L 3.578125 -8.480469 C 4.125 -9.40625 5.105469 -10.273438 6.570312 -10.273438 C 8.210938 -10.273438 9.078125 -9.203125 9.078125 -7.585938 L 5.765625 -7.585938 C 2.914062 -7.585938 0.699219 -6.671875 0.699219 -3.910156 C 0.699219 -1.246094 2.710938 0.253906 5.320312 0.253906 Z M 5.765625 -2.367188 C 4.558594 -2.367188 3.882812 -2.964844 3.882812 -3.804688 C 3.882812 -4.609375 4.53125 -5.347656 5.945312 -5.347656 L 9.078125 -5.347656 C 9.027344 -3.753906 7.535156 -2.367188 5.765625 -2.367188 Z M 5.765625 -2.367188 "/></g></g></g><g fill="#f4f4f4" fill-opacity="1"><g transform="translate(274.626062, 80.201436)"><g><path d="M 6.367188 0.253906 C 7.242188 0.253906 8.1875 0.0507812 8.65625 -0.128906 L 8.65625 -2.941406 C 8.238281 -2.738281 7.535156 -2.484375 6.886719 -2.484375 C 6.074219 -2.484375 5.449219 -2.839844 5.449219 -4.0625 L 5.449219 -10.121094 L 8.65625 -10.121094 L 8.65625 -12.71875 L 5.449219 -12.71875 L 5.449219 -18.089844 L 2.417969 -15.875 L 2.417969 -12.71875 L 0.316406 -12.71875 L 0.316406 -10.121094 L 2.367188 -10.121094 L 2.367188 -3.511719 C 2.367188 -1.195312 3.855469 0.253906 6.367188 0.253906 Z M 6.367188 0.253906 "/></g></g></g><g fill="#f4f4f4" fill-opacity="1"><g transform="translate(284.220969, 80.201436)"><g><path d="M 7.140625 0.253906 C 9.28125 0.253906 10.972656 -0.496094 12.363281 -2.035156 L 10.222656 -3.910156 C 9.332031 -2.914062 8.3125 -2.558594 7.167969 -2.558594 C 5.167969 -2.558594 4.253906 -3.679688 3.984375 -5.347656 L 12.71875 -5.347656 C 12.78125 -5.523438 12.832031 -6.046875 12.832031 -6.570312 C 12.832031 -9.40625 11.394531 -12.984375 6.9375 -12.984375 C 2.636719 -12.984375 0.699219 -9.625 0.699219 -6.3125 C 0.699219 -2.890625 2.761719 0.253906 7.140625 0.253906 Z M 3.984375 -7.585938 C 4.277344 -9.179688 5.078125 -10.375 6.914062 -10.375 C 8.53125 -10.375 9.574219 -9.40625 9.777344 -7.585938 Z M 3.984375 -7.585938 "/></g></g></g><g fill="#f4f4f4" fill-opacity="1"><g transform="translate(297.798913, 80.201436)"><g><path d="M 1.847656 0 L 4.851562 0 L 4.851562 -5.371094 C 4.851562 -8.605469 6.367188 -9.957031 7.816406 -9.957031 C 8.3125 -9.957031 8.785156 -9.800781 9.203125 -9.523438 L 10.617188 -12.070312 C 10.007812 -12.691406 9.128906 -12.984375 8.289062 -12.984375 C 6.863281 -12.984375 5.421875 -12.121094 4.875 -10.578125 L 4.875 -12.71875 L 1.847656 -12.71875 Z M 1.847656 0 "/></g></g></g><g fill="#f4f4f4" fill-opacity="1"><g transform="translate(308.170072, 80.201436)"><g><path d="M 1.769531 -15.125 L 5.003906 -15.125 L 5.003906 -17.988281 L 1.769531 -17.988281 Z M 1.847656 0 L 4.925781 0 L 4.925781 -12.71875 L 1.847656 -12.71875 Z M 1.847656 0 "/></g></g></g><g fill="#f4f4f4" fill-opacity="1"><g transform="translate(314.939954, 80.201436)"><g><path d="M 5.320312 0.253906 C 6.835938 0.253906 8.1875 -0.230469 9.28125 -1.820312 L 9.484375 0 L 12.042969 0 L 12.042969 -7.714844 C 12.042969 -10.820312 10.007812 -12.984375 6.542969 -12.984375 C 4.035156 -12.984375 2.417969 -11.863281 1.195312 -10.195312 L 3.578125 -8.480469 C 4.125 -9.40625 5.105469 -10.273438 6.570312 -10.273438 C 8.210938 -10.273438 9.078125 -9.203125 9.078125 -7.585938 L 5.765625 -7.585938 C 2.914062 -7.585938 0.699219 -6.671875 0.699219 -3.910156 C 0.699219 -1.246094 2.710938 0.253906 5.320312 0.253906 Z M 5.765625 -2.367188 C 4.558594 -2.367188 3.882812 -2.964844 3.882812 -3.804688 C 3.882812 -4.609375 4.53125 -5.347656 5.945312 -5.347656 L 9.078125 -5.347656 C 9.027344 -3.753906 7.535156 -2.367188 5.765625 -2.367188 Z M 5.765625 -2.367188 "/></g></g></g><g fill="#f4f4f4" fill-opacity="1"><g transform="translate(328.441535, 80.201436)"><g><path d="M 4.429688 0.253906 C 5.167969 0.253906 6.097656 0.128906 6.746094 0 L 6.746094 -2.609375 C 6.417969 -2.558594 6.074219 -2.535156 5.894531 -2.535156 C 5.269531 -2.535156 4.875 -2.789062 4.875 -3.386719 L 4.875 -17.988281 L 1.769531 -17.988281 L 1.769531 -2.535156 C 1.769531 -0.292969 2.964844 0.253906 4.429688 0.253906 Z M 4.429688 0.253906 "/></g></g></g><g fill="#f4f4f4" fill-opacity="1"><g transform="translate(335.733173, 80.201436)"><g><path d="M 5.679688 0.253906 C 8.082031 0.253906 10.644531 -1.042969 10.644531 -3.984375 C 10.644531 -8.65625 4.175781 -7.511719 4.175781 -9.433594 C 4.175781 -10.03125 4.800781 -10.527344 5.816406 -10.527344 C 7.191406 -10.527344 7.90625 -9.699219 8.339844 -8.910156 L 10.746094 -10.222656 C 9.777344 -11.941406 8.109375 -12.984375 5.917969 -12.984375 C 3.460938 -12.984375 1.195312 -11.710938 1.195312 -9.027344 C 1.195312 -4.53125 7.585938 -5.96875 7.585938 -3.832031 C 7.585938 -3.15625 6.964844 -2.316406 5.523438 -2.316406 C 3.832031 -2.316406 3.15625 -3.488281 2.8125 -4.40625 L 0.34375 -3.308594 C 0.96875 -1.347656 3.003906 0.253906 5.679688 0.253906 Z M 5.679688 0.253906 "/></g></g></g><g fill="#f4f4f4" fill-opacity="1"><g transform="translate(114.948449, 342.545876)"><g><path d="M 5.894531 0 L 9.128906 0 L 9.128906 -15.097656 L 14.753906 -15.097656 L 14.753906 -17.988281 L 0.253906 -17.988281 L 0.253906 -15.097656 L 5.894531 -15.097656 Z M 5.894531 0 "/></g></g></g><g fill="#f4f4f4" fill-opacity="1"><g transform="translate(129.964351, 342.545876)"><g><path d="M 7.140625 0.253906 C 9.28125 0.253906 10.972656 -0.496094 12.363281 -2.035156 L 10.222656 -3.910156 C 9.332031 -2.914062 8.3125 -2.558594 7.167969 -2.558594 C 5.167969 -2.558594 4.253906 -3.679688 3.984375 -5.347656 L 12.71875 -5.347656 C 12.78125 -5.523438 12.832031 -6.046875 12.832031 -6.570312 C 12.832031 -9.40625 11.394531 -12.984375 6.9375 -12.984375 C 2.636719 -12.984375 0.699219 -9.625 0.699219 -6.3125 C 0.699219 -2.890625 2.761719 0.253906 7.140625 0.253906 Z M 3.984375 -7.585938 C 4.277344 -9.179688 5.078125 -10.375 6.914062 -10.375 C 8.53125 -10.375 9.574219 -9.40625 9.777344 -7.585938 Z M 3.984375 -7.585938 "/></g></g></g><g fill="#f4f4f4" fill-opacity="1"><g transform="translate(143.542296, 342.545876)"><g><path d="M 5.320312 0.253906 C 6.835938 0.253906 8.1875 -0.230469 9.28125 -1.820312 L 9.484375 0 L 12.042969 0 L 12.042969 -7.714844 C 12.042969 -10.820312 10.007812 -12.984375 6.542969 -12.984375 C 4.035156 -12.984375 2.417969 -11.863281 1.195312 -10.195312 L 3.578125 -8.480469 C 4.125 -9.40625 5.105469 -10.273438 6.570312 -10.273438 C 8.210938 -10.273438 9.078125 -9.203125 9.078125 -7.585938 L 5.765625 -7.585938 C 2.914062 -7.585938 0.699219 -6.671875 0.699219 -3.910156 C 0.699219 -1.246094 2.710938 0.253906 5.320312 0.253906 Z M 5.765625 -2.367188 C 4.558594 -2.367188 3.882812 -2.964844 3.882812 -3.804688 C 3.882812 -4.609375 4.53125 -5.347656 5.945312 -5.347656 L 9.078125 -5.347656 C 9.027344 -3.753906 7.535156 -2.367188 5.765625 -2.367188 Z M 5.765625 -2.367188 "/></g></g></g><g fill="#f4f4f4" fill-opacity="1"><g transform="translate(157.043888, 342.545876)"><g><path d="M 6.886719 0.253906 C 9.40625 0.253906 11.394531 -1.144531 12.234375 -3.511719 L 9.40625 -4.582031 C 9.078125 -3.386719 8.109375 -2.558594 6.863281 -2.558594 C 4.699219 -2.558594 3.882812 -4.40625 3.882812 -6.339844 C 3.882812 -8.238281 4.722656 -10.171875 6.863281 -10.171875 C 8.136719 -10.171875 9.078125 -9.304688 9.40625 -8.082031 L 12.363281 -9.230469 C 11.394531 -11.761719 9.382812 -12.984375 6.863281 -12.984375 C 2.710938 -12.984375 0.726562 -9.675781 0.726562 -6.339844 C 0.726562 -2.964844 2.738281 0.253906 6.886719 0.253906 Z M 6.886719 0.253906 "/></g></g></g><g fill="#f4f4f4" fill-opacity="1"><g transform="translate(169.82013, 342.545876)"><g><path d="M 1.871094 0 L 5.027344 0 L 5.027344 -6.441406 C 5.027344 -8.554688 5.96875 -10.171875 7.957031 -10.171875 C 9.828125 -10.171875 10.25 -8.808594 10.25 -7.242188 L 10.25 0 L 13.40625 0 L 13.40625 -7.636719 C 13.40625 -10.300781 12.042969 -12.984375 8.707031 -12.984375 C 7.460938 -12.984375 6.046875 -12.488281 5.027344 -11.242188 L 5.027344 -17.988281 L 1.871094 -17.988281 Z M 1.871094 0 "/></g></g></g><g fill="#f4f4f4" fill-opacity="1"><g transform="translate(184.69606, 342.545876)"><g><path d="M 1.769531 -15.125 L 5.003906 -15.125 L 5.003906 -17.988281 L 1.769531 -17.988281 Z M 1.847656 0 L 4.925781 0 L 4.925781 -12.71875 L 1.847656 -12.71875 Z M 1.847656 0 "/></g></g></g><g fill="#f4f4f4" fill-opacity="1"><g transform="translate(191.465941, 342.545876)"><g><path d="M 1.847656 0 L 4.925781 0 L 4.925781 -6.964844 C 4.925781 -9.179688 6.046875 -10.121094 7.792969 -10.121094 C 9.382812 -10.121094 10.222656 -8.910156 10.222656 -7.242188 L 10.222656 0 L 13.289062 0 L 13.289062 -7.636719 C 13.289062 -10.300781 12.019531 -12.984375 8.683594 -12.984375 C 7.433594 -12.984375 5.945312 -12.488281 4.925781 -11.242188 L 4.925781 -12.71875 L 1.847656 -12.71875 Z M 1.847656 0 "/></g></g></g><g fill="#f4f4f4" fill-opacity="1"><g transform="translate(206.240068, 342.545876)"><g><path d="M 7.664062 -1.984375 C 5.398438 -2.265625 3.832031 -2.292969 3.832031 -3.335938 C 3.832031 -3.628906 3.945312 -3.84375 4.199219 -4.011719 C 4.925781 -3.691406 5.742188 -3.511719 6.621094 -3.511719 C 9.40625 -3.511719 11.789062 -5.320312 11.789062 -8.160156 C 11.789062 -8.988281 11.597656 -9.738281 11.242188 -10.375 L 13.085938 -11.863281 L 11.46875 -13.839844 L 9.523438 -12.171875 C 8.667969 -12.691406 7.625 -12.984375 6.519531 -12.984375 C 3.703125 -12.984375 1.296875 -11.074219 1.296875 -8.3125 C 1.296875 -7.191406 1.691406 -6.1875 2.355469 -5.386719 C 1.605469 -4.722656 1.171875 -3.894531 1.171875 -2.761719 C 1.171875 -1.539062 1.667969 -0.765625 2.417969 -0.253906 L 1.09375 0.941406 C 1.070312 1.070312 1.042969 1.195312 1.042969 1.488281 C 1.042969 4.097656 3.234375 6.023438 6.988281 6.023438 C 10.144531 6.023438 12.617188 4.648438 12.617188 1.769531 C 12.617188 -1.144531 10.070312 -1.667969 7.664062 -1.984375 Z M 6.621094 -10.578125 C 7.980469 -10.578125 8.707031 -9.625 8.707031 -8.289062 C 8.707031 -6.988281 8.007812 -6.046875 6.621094 -6.046875 C 5.246094 -6.046875 4.507812 -6.988281 4.507812 -8.289062 C 4.507812 -9.625 5.269531 -10.578125 6.621094 -10.578125 Z M 7.015625 3.578125 C 5.195312 3.578125 3.832031 2.914062 3.652344 1.566406 L 4.304688 0.496094 C 5.054688 0.675781 5.855469 0.75 6.570312 0.839844 C 8.582031 1.070312 9.675781 1.195312 9.675781 2.140625 C 9.675781 3.054688 8.632812 3.578125 7.015625 3.578125 Z M 7.015625 3.578125 "/></g></g></g><g fill="#f4f4f4" fill-opacity="1"><g transform="translate(219.588956, 342.545876)"><g/></g></g><g fill="#f4f4f4" fill-opacity="1"><g transform="translate(225.849824, 342.545876)"><g><path d="M 2.316406 0 L 5.523438 0 L 5.523438 -7.460938 L 7.957031 -7.460938 C 11.621094 -7.460938 14.308594 -9.304688 14.308594 -12.667969 C 14.308594 -16.066406 11.621094 -17.988281 7.957031 -17.988281 L 2.316406 -17.988281 Z M 5.523438 -10.476562 L 5.523438 -14.972656 L 7.957031 -14.972656 C 10.144531 -14.972656 11.101562 -14.132812 11.101562 -12.667969 C 11.101562 -11.242188 10.171875 -10.476562 7.957031 -10.476562 Z M 5.523438 -10.476562 "/></g></g></g><g fill="#f4f4f4" fill-opacity="1"><g transform="translate(240.700303, 342.545876)"><g><path d="M 1.847656 0 L 4.851562 0 L 4.851562 -5.371094 C 4.851562 -8.605469 6.367188 -9.957031 7.816406 -9.957031 C 8.3125 -9.957031 8.785156 -9.800781 9.203125 -9.523438 L 10.617188 -12.070312 C 10.007812 -12.691406 9.128906 -12.984375 8.289062 -12.984375 C 6.863281 -12.984375 5.421875 -12.121094 4.875 -10.578125 L 4.875 -12.71875 L 1.847656 -12.71875 Z M 1.847656 0 "/></g></g></g><g fill="#f4f4f4" fill-opacity="1"><g transform="translate(251.071462, 342.545876)"><g><path d="M 7.167969 0.253906 C 11.101562 0.253906 13.683594 -2.789062 13.683594 -6.390625 C 13.683594 -9.980469 11.101562 -12.984375 7.167969 -12.984375 C 3.234375 -12.984375 0.648438 -9.980469 0.648438 -6.390625 C 0.648438 -2.789062 3.234375 0.253906 7.167969 0.253906 Z M 7.167969 -2.417969 C 4.824219 -2.417969 3.882812 -4.304688 3.882812 -6.390625 C 3.882812 -8.480469 4.824219 -10.300781 7.167969 -10.300781 C 9.523438 -10.300781 10.453125 -8.480469 10.453125 -6.390625 C 10.453125 -4.304688 9.523438 -2.417969 7.167969 -2.417969 Z M 7.167969 -2.417969 "/></g></g></g><g fill="#f4f4f4" fill-opacity="1"><g transform="translate(265.425646, 342.545876)"><g><path d="M 2.585938 0 L 5.792969 0 L 5.792969 -10.121094 L 8.757812 -10.121094 L 8.757812 -12.71875 L 5.792969 -12.71875 L 5.792969 -14.105469 C 5.792969 -15.097656 6.339844 -15.492188 6.964844 -15.492188 C 7.292969 -15.492188 7.664062 -15.351562 7.957031 -15.175781 L 8.976562 -17.734375 C 8.289062 -18.039062 7.511719 -18.253906 6.671875 -18.253906 C 4.53125 -18.253906 2.609375 -16.894531 2.609375 -14.421875 L 2.609375 -12.71875 L 0.253906 -12.71875 L 0.253906 -10.121094 L 2.585938 -10.121094 Z M 2.585938 0 "/></g></g></g><g fill="#f4f4f4" fill-opacity="1"><g transform="translate(274.180681, 342.545876)"><g><path d="M 7.140625 0.253906 C 9.28125 0.253906 10.972656 -0.496094 12.363281 -2.035156 L 10.222656 -3.910156 C 9.332031 -2.914062 8.3125 -2.558594 7.167969 -2.558594 C 5.167969 -2.558594 4.253906 -3.679688 3.984375 -5.347656 L 12.71875 -5.347656 C 12.78125 -5.523438 12.832031 -6.046875 12.832031 -6.570312 C 12.832031 -9.40625 11.394531 -12.984375 6.9375 -12.984375 C 2.636719 -12.984375 0.699219 -9.625 0.699219 -6.3125 C 0.699219 -2.890625 2.761719 0.253906 7.140625 0.253906 Z M 3.984375 -7.585938 C 4.277344 -9.179688 5.078125 -10.375 6.914062 -10.375 C 8.53125 -10.375 9.574219 -9.40625 9.777344 -7.585938 Z M 3.984375 -7.585938 "/></g></g></g><g fill="#f4f4f4" fill-opacity="1"><g transform="translate(287.758625, 342.545876)"><g><path d="M 5.679688 0.253906 C 8.082031 0.253906 10.644531 -1.042969 10.644531 -3.984375 C 10.644531 -8.65625 4.175781 -7.511719 4.175781 -9.433594 C 4.175781 -10.03125 4.800781 -10.527344 5.816406 -10.527344 C 7.191406 -10.527344 7.90625 -9.699219 8.339844 -8.910156 L 10.746094 -10.222656 C 9.777344 -11.941406 8.109375 -12.984375 5.917969 -12.984375 C 3.460938 -12.984375 1.195312 -11.710938 1.195312 -9.027344 C 1.195312 -4.53125 7.585938 -5.96875 7.585938 -3.832031 C 7.585938 -3.15625 6.964844 -2.316406 5.523438 -2.316406 C 3.832031 -2.316406 3.15625 -3.488281 2.8125 -4.40625 L 0.34375 -3.308594 C 0.96875 -1.347656 3.003906 0.253906 5.679688 0.253906 Z M 5.679688 0.253906 "/></g></g></g><g fill="#f4f4f4" fill-opacity="1"><g transform="translate(299.325966, 342.545876)"><g><path d="M 5.679688 0.253906 C 8.082031 0.253906 10.644531 -1.042969 10.644531 -3.984375 C 10.644531 -8.65625 4.175781 -7.511719 4.175781 -9.433594 C 4.175781 -10.03125 4.800781 -10.527344 5.816406 -10.527344 C 7.191406 -10.527344 7.90625 -9.699219 8.339844 -8.910156 L 10.746094 -10.222656 C 9.777344 -11.941406 8.109375 -12.984375 5.917969 -12.984375 C 3.460938 -12.984375 1.195312 -11.710938 1.195312 -9.027344 C 1.195312 -4.53125 7.585938 -5.96875 7.585938 -3.832031 C 7.585938 -3.15625 6.964844 -2.316406 5.523438 -2.316406 C 3.832031 -2.316406 3.15625 -3.488281 2.8125 -4.40625 L 0.34375 -3.308594 C 0.96875 -1.347656 3.003906 0.253906 5.679688 0.253906 Z M 5.679688 0.253906 "/></g></g></g><g fill="#f4f4f4" fill-opacity="1"><g transform="translate(310.893307, 342.545876)"><g><path d="M 7.167969 0.253906 C 11.101562 0.253906 13.683594 -2.789062 13.683594 -6.390625 C 13.683594 -9.980469 11.101562 -12.984375 7.167969 -12.984375 C 3.234375 -12.984375 0.648438 -9.980469 0.648438 -6.390625 C 0.648438 -2.789062 3.234375 0.253906 7.167969 0.253906 Z M 7.167969 -2.417969 C 4.824219 -2.417969 3.882812 -4.304688 3.882812 -6.390625 C 3.882812 -8.480469 4.824219 -10.300781 7.167969 -10.300781 C 9.523438 -10.300781 10.453125 -8.480469 10.453125 -6.390625 C 10.453125 -4.304688 9.523438 -2.417969 7.167969 -2.417969 Z M 7.167969 -2.417969 "/></g></g></g><g fill="#f4f4f4" fill-opacity="1"><g transform="translate(325.247491, 342.545876)"><g><path d="M 1.847656 0 L 4.851562 0 L 4.851562 -5.371094 C 4.851562 -8.605469 6.367188 -9.957031 7.816406 -9.957031 C 8.3125 -9.957031 8.785156 -9.800781 9.203125 -9.523438 L 10.617188 -12.070312 C 10.007812 -12.691406 9.128906 -12.984375 8.289062 -12.984375 C 6.863281 -12.984375 5.421875 -12.121094 4.875 -10.578125 L 4.875 -12.71875 L 1.847656 -12.71875 Z M 1.847656 0 "/></g></g></g><g fill="#f4f4f4" fill-opacity="1"><g transform="translate(335.61865, 342.545876)"><g><path d="M 5.679688 0.253906 C 8.082031 0.253906 10.644531 -1.042969 10.644531 -3.984375 C 10.644531 -8.65625 4.175781 -7.511719 4.175781 -9.433594 C 4.175781 -10.03125 4.800781 -10.527344 5.816406 -10.527344 C 7.191406 -10.527344 7.90625 -9.699219 8.339844 -8.910156 L 10.746094 -10.222656 C 9.777344 -11.941406 8.109375 -12.984375 5.917969 -12.984375 C 3.460938 -12.984375 1.195312 -11.710938 1.195312 -9.027344 C 1.195312 -4.53125 7.585938 -5.96875 7.585938 -3.832031 C 7.585938 -3.15625 6.964844 -2.316406 5.523438 -2.316406 C 3.832031 -2.316406 3.15625 -3.488281 2.8125 -4.40625 L 0.34375 -3.308594 C 0.96875 -1.347656 3.003906 0.253906 5.679688 0.253906 Z M 5.679688 0.253906 "/></g></g></g></svg>