<svg xmlns="http://www.w3.org/2000/svg" xmlns:xlink="http://www.w3.org/1999/xlink" width="1366" zoomAndPan="magnify" viewBox="0 0 1024.5 576" height="768" preserveAspectRatio="xMidYMid meet" version="1.0"><defs><clipPath id="86bb45bac4"><path d="M 0 0.140625 L 1024 0.140625 L 1024 575.859375 L 0 575.859375 Z M 0 0.140625 " clip-rule="nonzero"/></clipPath><clipPath id="429b8893d4"><path d="M 57.570312 157.515625 L 511.851562 157.515625 L 511.851562 418.390625 L 57.570312 418.390625 Z M 57.570312 157.515625 " clip-rule="nonzero"/></clipPath><clipPath id="28dd5be44b"><path d="M 57.570312 157.515625 L 415 157.515625 L 415 418.390625 L 57.570312 418.390625 Z M 57.570312 157.515625 " clip-rule="nonzero"/></clipPath><clipPath id="de24d8a027"><path d="M 69 159 L 511.851562 159 L 511.851562 413 L 69 413 Z M 69 159 " clip-rule="nonzero"/></clipPath><clipPath id="2f1d64e70e"><path d="M 0 0.140625 L 1024 0.140625 L 1024 303 L 0 303 Z M 0 0.140625 " clip-rule="nonzero"/></clipPath><clipPath id="d6f35967d0"><path d="M 29.601562 -283.246094 L 1174.058594 30.152344 L 1099.289062 303.199219 L -45.167969 -10.195312 Z M 29.601562 -283.246094 " clip-rule="nonzero"/></clipPath><clipPath id="bdbb2d9c07"><path d="M 29.601562 -283.246094 L 1173.117188 29.894531 L 1098.347656 302.941406 L -45.167969 -10.195312 Z M 29.601562 -283.246094 " clip-rule="nonzero"/></clipPath></defs><g clip-path="url(#86bb45bac4)"><path fill="#ffffff" d="M 0 0.140625 L 1024 0.140625 L 1024 575.859375 L 0 575.859375 Z M 0 0.140625 " fill-opacity="1" fill-rule="nonzero"/><path fill="#418ebf" d="M 0 0.140625 L 1024 0.140625 L 1024 575.859375 L 0 575.859375 Z M 0 0.140625 " fill-opacity="1" fill-rule="nonzero"/></g><g clip-path="url(#429b8893d4)"><path fill="#f2dfd7" d="M 512.039062 198.710938 L 512.039062 328.078125 C 512.039062 330.78125 509.839844 332.980469 507.136719 332.980469 L 221.511719 332.980469 C 215.207031 341.558594 205.96875 352.921875 200.117188 356.914062 C 196.714844 359.230469 192.132812 360.8125 187.375 360.8125 C 183.191406 360.8125 178.875 359.59375 175.09375 356.585938 C 170.921875 353.261719 166.925781 349.890625 166.886719 349.855469 C 166.875 349.847656 166.871094 349.832031 166.863281 349.820312 C 166.847656 349.808594 166.828125 349.800781 166.8125 349.785156 L 162.085938 344.441406 L 158.785156 344.074219 L 161.722656 417.632812 C 161.730469 417.820312 161.660156 418.007812 161.527344 418.144531 C 161.394531 418.28125 161.214844 418.359375 161.023438 418.359375 L 72.328125 418.359375 C 71.949219 418.359375 71.640625 418.058594 71.628906 417.675781 C 71.621094 417.4375 70.945312 393.265625 70.683594 375.070312 C 70.597656 369.214844 70.351562 363.085938 70.109375 357.160156 C 69.832031 350.261719 69.5625 343.496094 69.539062 337.226562 C 69.535156 337.207031 69.539062 337.1875 69.539062 337.167969 C 69.488281 324.460938 70.46875 313.816406 74.523438 308.40625 C 84.492188 295.101562 104.554688 288.507812 108.304688 287.367188 L 105.976562 271.742188 C 104.542969 271.886719 101.363281 271.890625 99.222656 269.539062 C 97.421875 267.558594 96.335938 264.503906 96.523438 261.933594 C 96.636719 260.371094 97.21875 259.117188 98.203125 258.3125 C 99.011719 257.644531 99.875 257.320312 100.707031 257.191406 C 100.21875 254.695312 98.164062 243.277344 100.296875 237.378906 C 102.714844 230.675781 113.925781 225.761719 124.292969 226.863281 C 132.921875 227.78125 136.488281 230.917969 137.960938 233.390625 C 139.140625 235.371094 139.164062 237.222656 138.78125 238.402344 C 139.40625 240.429688 139.523438 242.320312 139.539062 243.164062 C 139.59375 245.847656 139.445312 248.484375 139.316406 250.808594 C 139.171875 253.378906 139.050781 255.59375 139.210938 257.277344 C 139.339844 258.589844 139.765625 260.140625 140.21875 261.78125 C 141.453125 266.277344 142.988281 271.867188 139.703125 277.203125 C 138.332031 279.429688 136.460938 281.238281 134.246094 282.53125 L 134.765625 286.070312 C 138.269531 286.59375 157.769531 289.738281 163.5625 295.699219 C 165.234375 297.417969 166.988281 299.347656 168.765625 301.386719 L 176.335938 302.230469 C 176.882812 302.289062 177.371094 302.558594 177.714844 302.988281 C 178.058594 303.417969 178.210938 303.953125 178.152344 304.5 L 177.394531 311.3125 C 177.53125 311.390625 177.648438 311.492188 177.710938 311.644531 C 177.734375 311.695312 177.902344 312.105469 178.082031 312.722656 C 182.5 318.347656 186.324219 323.53125 188.464844 326.476562 L 188.464844 198.710938 C 188.464844 196.003906 190.664062 193.808594 193.367188 193.808594 L 207.789062 193.808594 L 193.761719 180.136719 C 193.570312 179.949219 193.503906 179.671875 193.585938 179.417969 C 193.667969 179.164062 193.886719 178.976562 194.152344 178.9375 L 213.9375 176.0625 L 222.789062 158.132812 C 223.023438 157.652344 223.808594 157.652344 224.046875 158.132812 L 232.894531 176.0625 L 252.683594 178.9375 C 252.945312 178.976562 253.167969 179.164062 253.25 179.417969 C 253.332031 179.671875 253.261719 179.949219 253.070312 180.136719 L 239.046875 193.808594 L 275.738281 193.808594 L 261.710938 180.136719 C 261.519531 179.949219 261.449219 179.671875 261.53125 179.417969 C 261.617188 179.164062 261.835938 178.976562 262.101562 178.9375 L 281.886719 176.0625 L 290.734375 158.132812 C 290.855469 157.894531 291.097656 157.742188 291.367188 157.742188 C 291.632812 157.742188 291.878906 157.894531 291.996094 158.132812 L 300.84375 176.0625 L 320.628906 178.9375 C 320.894531 178.976562 321.113281 179.160156 321.195312 179.414062 C 321.277344 179.667969 321.210938 179.949219 321.019531 180.132812 L 306.996094 193.804688 L 343.683594 193.804688 L 329.660156 180.132812 C 329.46875 179.949219 329.398438 179.667969 329.480469 179.414062 C 329.566406 179.160156 329.785156 178.976562 330.046875 178.9375 L 349.835938 176.0625 L 358.683594 158.132812 C 358.921875 157.652344 359.707031 157.652344 359.945312 158.132812 L 368.792969 176.0625 L 388.582031 178.9375 C 388.84375 178.976562 389.066406 179.160156 389.148438 179.414062 C 389.230469 179.667969 389.160156 179.949219 388.96875 180.132812 L 374.945312 193.804688 L 407.484375 193.804688 C 408.539062 191.875 410.140625 190.292969 412.082031 189.253906 C 411.964844 188.664062 411.839844 188.050781 411.707031 187.410156 C 411.242188 185.136719 410.710938 182.554688 410.371094 179.898438 C 410.324219 179.601562 409.273438 172.660156 412.988281 169.375 C 412.992188 169.367188 413 169.359375 413.003906 169.351562 C 413.015625 169.339844 413.027344 169.332031 413.039062 169.320312 C 413.042969 169.316406 413.050781 169.3125 413.054688 169.304688 C 413.058594 169.300781 413.066406 169.296875 413.070312 169.292969 C 413.421875 168.933594 413.808594 168.59375 414.210938 168.265625 C 416.410156 163.628906 419.800781 160.425781 429.015625 159.851562 C 430.375 159.765625 431.828125 159.742188 433.3125 159.8125 C 433.3125 159.8125 433.316406 159.808594 433.320312 159.808594 C 433.84375 159.824219 446.230469 160.214844 452.957031 167.484375 C 457.347656 172.230469 457.175781 180.804688 455.601562 188.398438 C 458.484375 189.246094 460.890625 191.214844 462.300781 193.804688 L 507.136719 193.804688 C 509.839844 193.808594 512.039062 196.007812 512.039062 198.710938 Z M 87.519531 205.234375 L 105.21875 214.539062 C 105.320312 214.59375 105.433594 214.621094 105.542969 214.621094 C 105.691406 214.621094 105.835938 214.574219 105.957031 214.484375 C 106.171875 214.328125 106.28125 214.0625 106.238281 213.800781 L 102.855469 194.09375 L 117.175781 180.136719 C 117.367188 179.949219 117.433594 179.671875 117.351562 179.417969 C 117.269531 179.164062 117.050781 178.976562 116.785156 178.941406 L 97 176.066406 L 88.148438 158.132812 C 87.914062 157.652344 87.125 157.652344 86.890625 158.132812 L 78.042969 176.0625 L 58.253906 178.9375 C 57.992188 178.976562 57.769531 179.164062 57.6875 179.417969 C 57.605469 179.671875 57.675781 179.949219 57.867188 180.136719 L 72.183594 194.089844 L 68.804688 213.796875 C 68.757812 214.0625 68.867188 214.328125 69.082031 214.484375 C 69.300781 214.640625 69.585938 214.664062 69.824219 214.539062 Z M 140.132812 194.089844 L 136.753906 213.796875 C 136.707031 214.0625 136.816406 214.328125 137.03125 214.484375 C 137.25 214.640625 137.535156 214.664062 137.773438 214.539062 L 155.46875 205.234375 L 173.164062 214.539062 C 173.269531 214.59375 173.378906 214.617188 173.492188 214.617188 C 173.636719 214.617188 173.78125 214.574219 173.90625 214.484375 C 174.121094 214.328125 174.230469 214.0625 174.183594 213.796875 L 170.804688 194.089844 L 185.121094 180.136719 C 185.3125 179.949219 185.382812 179.671875 185.300781 179.417969 C 185.21875 179.164062 185 178.976562 184.734375 178.9375 L 164.945312 176.0625 L 156.097656 158.132812 C 155.863281 157.652344 155.074219 157.652344 154.839844 158.132812 L 145.988281 176.0625 L 126.203125 178.9375 C 125.9375 178.976562 125.71875 179.160156 125.636719 179.414062 C 125.554688 179.667969 125.621094 179.949219 125.816406 180.132812 Z M 306.285156 344.746094 C 310.40625 355.894531 307.9375 369.054688 300 378.277344 C 292.273438 387.253906 279.984375 391.921875 267.917969 390.433594 C 265.542969 390.140625 263.183594 389.601562 260.886719 388.84375 C 259.835938 397.160156 254.742188 405 247.511719 409.0625 C 243.625 411.246094 239.199219 412.324219 234.78125 412.324219 C 229.652344 412.328125 224.539062 410.867188 220.304688 407.988281 C 217.386719 406.007812 214.8125 403.378906 212.601562 400.128906 C 207.816406 402.746094 201.882812 403.359375 196.738281 401.558594 C 190.1875 399.273438 185.0625 393.128906 183.988281 386.269531 C 183.925781 385.886719 184.1875 385.527344 184.570312 385.46875 C 184.964844 385.410156 185.3125 385.671875 185.375 386.054688 C 186.371094 392.414062 191.125 398.113281 197.199219 400.234375 C 201.941406 401.890625 207.40625 401.34375 211.832031 398.949219 C 209.949219 395.941406 208.355469 392.445312 207.050781 388.484375 C 206.417969 386.554688 204.6875 380.070312 208.957031 377.550781 C 209.816406 377.042969 210.886719 376.765625 212.050781 376.75 C 212.085938 376.75 212.121094 376.75 212.152344 376.75 C 216.597656 376.75 220.667969 380.652344 221.253906 385.496094 C 221.761719 389.679688 219.882812 394.179688 216.234375 397.535156 C 215.480469 398.226562 214.667969 398.851562 213.808594 399.40625 C 215.910156 402.480469 218.34375 404.957031 221.09375 406.828125 C 228.542969 411.890625 238.882812 412.300781 246.824219 407.839844 C 253.765625 403.9375 258.621094 396.363281 259.53125 388.367188 C 251.207031 385.269531 243.761719 379.269531 239.054688 371.570312 C 236.859375 367.980469 236.007812 363.355469 239.050781 361.109375 C 241.027344 359.652344 244.011719 359.894531 247.238281 361.777344 C 255.542969 366.613281 260.980469 375.875 261.089844 385.378906 C 261.097656 386.058594 261.078125 386.734375 261.03125 387.410156 C 263.332031 388.191406 265.699219 388.746094 268.089844 389.039062 C 279.511719 390.4375 291.625 385.855469 298.9375 377.363281 C 306.429688 368.65625 308.855469 355.742188 304.96875 345.230469 C 304.835938 344.867188 305.019531 344.460938 305.382812 344.328125 C 305.746094 344.191406 306.148438 344.378906 306.285156 344.746094 Z M 213.042969 398.234375 C 213.835938 397.722656 214.589844 397.140625 215.285156 396.503906 C 218.601562 393.453125 220.3125 389.402344 219.859375 385.664062 C 219.367188 381.574219 215.847656 378.15625 212.152344 378.15625 C 212.125 378.15625 212.097656 378.15625 212.070312 378.15625 C 211.148438 378.167969 210.320312 378.375 209.671875 378.761719 C 206.304688 380.746094 207.835938 386.371094 208.386719 388.046875 C 209.65625 391.914062 211.210938 395.316406 213.042969 398.234375 Z M 259.683594 385.398438 C 259.582031 376.378906 254.417969 367.582031 246.53125 362.988281 C 245.644531 362.472656 243.835938 361.566406 242.101562 361.566406 C 241.316406 361.566406 240.550781 361.75 239.886719 362.238281 C 237.570312 363.949219 238.453125 367.894531 240.253906 370.839844 C 244.730469 378.160156 251.765625 383.890625 259.652344 386.917969 C 259.679688 386.410156 259.691406 385.902344 259.683594 385.398438 Z M 259.683594 385.398438 " fill-opacity="1" fill-rule="nonzero"/></g><path fill="#d3555d" d="M 420.808594 324.152344 C 421.953125 324.558594 423.183594 324.914062 424.488281 325.226562 L 420.808594 325.226562 Z M 412.511719 322.652344 C 412.164062 323.078125 411.859375 323.449219 411.609375 323.734375 C 410.851562 324.597656 409.785156 325.082031 408.675781 325.082031 C 408.640625 325.082031 408.605469 325.082031 408.570312 325.082031 C 407.644531 325.054688 406.8125 324.691406 406.351562 324.105469 C 406.332031 324.078125 406.324219 324.046875 406.304688 324.015625 C 405.683594 324.496094 404.855469 324.777344 403.976562 324.777344 C 403.882812 324.777344 403.785156 324.777344 403.6875 324.769531 C 402.707031 324.703125 401.863281 324.300781 401.363281 323.664062 C 401.363281 323.664062 401.363281 323.660156 401.359375 323.660156 C 400.746094 324.109375 400.023438 324.371094 399.308594 324.371094 C 399.144531 324.371094 398.980469 324.359375 398.816406 324.332031 C 398.496094 324.277344 398.207031 324.15625 397.9375 324.003906 C 397.929688 324 397.921875 323.992188 397.914062 323.988281 L 397.859375 325.222656 L 419.40625 325.222656 L 419.40625 323.617188 C 417.324219 322.738281 415.648438 321.648438 414.496094 320.324219 C 413.75 321.140625 413.078125 321.960938 412.511719 322.652344 Z M 469.46875 326.695312 C 466.980469 326.871094 464.34375 326.988281 461.515625 327.058594 L 459.410156 327.113281 C 456.402344 327.195312 452.632812 327.296875 448.550781 327.296875 C 444.597656 327.296875 440.351562 327.195312 436.214844 326.890625 C 436.542969 327.367188 436.769531 327.910156 436.828125 328.503906 C 436.921875 329.441406 436.636719 330.371094 436.0625 331.105469 C 436.007812 331.179688 435.964844 331.257812 435.902344 331.328125 C 435.28125 332.011719 434.421875 332.417969 433.503906 332.496094 C 436.9375 332.515625 440.394531 332.527344 443.761719 332.527344 C 454.582031 332.527344 464.492188 332.410156 469.851562 332.066406 C 470.058594 332.050781 470.261719 332.035156 470.460938 332.011719 L 470.863281 331.972656 C 471.054688 331.960938 471.234375 331.863281 471.351562 331.714844 C 471.386719 331.675781 471.398438 331.625 471.421875 331.578125 C 471.484375 331.453125 471.519531 331.320312 471.5 331.179688 L 470.871094 326.59375 C 470.410156 326.632812 469.9375 326.664062 469.46875 326.695312 Z M 480.800781 242.691406 C 479.515625 240.785156 477.9375 239.035156 476.210938 237.441406 C 475.734375 237.003906 475.242188 236.574219 474.746094 236.15625 C 468.339844 230.8125 460.433594 227.453125 456.824219 226.089844 C 456.15625 225.839844 455.632812 225.652344 455.292969 225.535156 C 455.207031 225.507812 455.132812 225.480469 455.070312 225.460938 L 447.726562 216.59375 L 447.566406 216.398438 C 447.347656 216.132812 446.972656 216.066406 446.675781 216.238281 L 446.324219 216.441406 L 428.796875 226.589844 L 422.765625 219.789062 L 422.589844 219.589844 C 422.445312 219.425781 422.230469 219.339844 422.011719 219.355469 C 421.792969 219.371094 421.597656 219.484375 421.476562 219.667969 L 421.363281 219.84375 L 415.570312 228.691406 C 413.519531 229.007812 402.765625 231.132812 393.839844 241.75 C 384.242188 253.160156 374.457031 291.410156 373.984375 293.277344 C 373.984375 293.285156 373.980469 293.300781 373.976562 293.308594 C 373.921875 293.515625 373.96875 293.742188 374.101562 293.910156 C 374.234375 294.082031 374.441406 294.183594 374.65625 294.183594 L 397.808594 294.183594 L 397.824219 293.757812 C 397.628906 293.558594 397.324219 293.222656 396.960938 292.777344 C 395.304688 290.75 392.375 286.28125 392.375 280.054688 C 392.375 271.675781 400.265625 258.226562 400.601562 257.660156 C 400.796875 257.324219 401.230469 257.214844 401.5625 257.410156 C 401.894531 257.609375 402.007812 258.039062 401.808594 258.371094 C 401.726562 258.507812 393.777344 272.058594 393.777344 280.054688 C 393.777344 287.917969 398.96875 292.917969 399.019531 292.96875 C 399.023438 292.972656 399.023438 292.972656 399.023438 292.976562 C 399.09375 293.042969 399.148438 293.121094 399.1875 293.210938 C 399.195312 293.230469 399.191406 293.25 399.199219 293.269531 C 399.222656 293.347656 399.242188 293.425781 399.242188 293.507812 L 398.667969 306.636719 C 398.695312 306.621094 398.722656 306.605469 398.746094 306.59375 C 401.757812 304.925781 405.105469 303.847656 408.425781 303.847656 C 408.429688 303.847656 408.433594 303.847656 408.4375 303.847656 C 412.210938 303.847656 415.972656 304.527344 419.402344 305.761719 L 419.402344 294.921875 C 418.570312 293.761719 414.8125 287.867188 415.28125 276.234375 C 415.703125 265.691406 423.90625 239.703125 426.910156 230.511719 L 419.789062 238.558594 C 419.625 238.746094 419.378906 238.828125 419.136719 238.785156 C 418.894531 238.742188 418.695312 238.574219 418.605469 238.34375 L 415.527344 230.125 L 415.324219 229.585938 C 415.1875 229.222656 415.371094 228.820312 415.734375 228.683594 C 416.097656 228.550781 416.503906 228.730469 416.636719 229.09375 L 416.761719 229.429688 L 419.511719 236.757812 L 427.710938 227.484375 L 428.121094 227.019531 C 428.125 227.015625 428.128906 227.015625 428.128906 227.011719 C 428.199219 226.9375 428.289062 226.882812 428.382812 226.84375 C 428.414062 226.832031 428.441406 226.828125 428.46875 226.820312 C 428.542969 226.800781 428.617188 226.792969 428.691406 226.796875 C 428.714844 226.796875 428.734375 226.785156 428.753906 226.789062 C 428.773438 226.792969 428.785156 226.804688 428.800781 226.808594 C 428.824219 226.8125 428.847656 226.808594 428.871094 226.816406 C 428.925781 226.835938 428.964844 226.871094 429.007812 226.898438 C 429.035156 226.914062 429.0625 226.921875 429.089844 226.945312 C 429.171875 227.011719 429.234375 227.09375 429.28125 227.1875 C 429.28125 227.191406 429.289062 227.195312 429.289062 227.199219 L 429.542969 227.773438 L 434.386719 238.675781 L 453.617188 225.910156 L 454.265625 225.480469 C 454.585938 225.265625 455.023438 225.351562 455.242188 225.675781 C 455.453125 226 455.367188 226.433594 455.042969 226.648438 L 454.753906 226.839844 L 434.46875 240.304688 C 434.351562 240.382812 434.21875 240.421875 434.082031 240.421875 C 434.015625 240.421875 433.949219 240.414062 433.886719 240.394531 C 433.6875 240.335938 433.523438 240.191406 433.4375 240.003906 L 428.742188 229.425781 C 426.335938 236.742188 417.117188 265.421875 416.683594 276.289062 C 416.191406 288.515625 420.605469 294.195312 420.652344 294.25 C 420.75 294.375 420.804688 294.53125 420.804688 294.691406 L 420.804688 306.320312 C 422.546875 307.046875 424.191406 307.910156 425.671875 308.925781 L 466.519531 305.257812 L 467.171875 305.199219 L 464.921875 293.613281 C 464.921875 293.613281 464.921875 293.609375 464.921875 293.609375 L 464.917969 293.585938 L 457.988281 258.152344 C 457.910156 257.769531 458.160156 257.402344 458.539062 257.328125 C 458.914062 257.25 459.289062 257.5 459.363281 257.878906 L 466.1875 292.777344 L 493.507812 292.777344 C 493.851562 292.777344 494.144531 293.027344 494.203125 293.367188 C 492.046875 275.324219 486.929688 251.777344 480.800781 242.691406 Z M 172.140625 338 C 165.542969 341.199219 155.339844 341.851562 153.460938 341.945312 C 153.433594 341.976562 153.386719 342.023438 153.355469 342.054688 C 153.113281 342.308594 152.742188 342.695312 152.253906 343.195312 C 152.476562 343.316406 152.722656 343.398438 152.988281 343.429688 C 152.992188 343.429688 152.992188 343.429688 152.992188 343.429688 L 157.375 343.917969 L 158.785156 344.074219 L 162.085938 344.441406 L 164.164062 344.671875 L 170.691406 345.398438 L 171.519531 345.492188 C 171.597656 345.5 171.671875 345.503906 171.746094 345.503906 C 172.78125 345.503906 173.671875 344.726562 173.789062 343.675781 L 173.914062 342.53125 L 174.570312 336.640625 C 174.113281 336.9375 173.609375 337.230469 173.0625 337.523438 C 172.761719 337.683594 172.464844 337.839844 172.140625 338 Z M 176.335938 302.230469 L 168.765625 301.386719 L 166.695312 301.15625 L 157.808594 300.167969 C 156.664062 300.039062 155.664062 300.859375 155.539062 301.984375 L 154.390625 312.296875 C 154.457031 312.28125 154.515625 312.253906 154.582031 312.242188 C 154.949219 312.15625 155.316406 312.398438 155.40625 312.765625 L 155.640625 313.753906 L 156.5625 317.613281 C 159.449219 317.015625 170.554688 314.710938 172.914062 314.292969 C 174.304688 314.046875 175.285156 313.132812 175.855469 312.433594 C 176.234375 311.972656 176.433594 311.601562 176.441406 311.59375 C 176.566406 311.351562 176.808594 311.207031 177.09375 311.214844 C 177.203125 311.21875 177.300781 311.265625 177.394531 311.316406 L 178.152344 304.503906 C 178.210938 303.957031 178.058594 303.417969 177.714844 302.988281 C 177.371094 302.5625 176.882812 302.292969 176.335938 302.230469 Z M 176.335938 302.230469 " fill-opacity="1" fill-rule="nonzero"/><g clip-path="url(#28dd5be44b)"><path fill="#004aad" d="M 283.664062 298.570312 C 282.648438 296 282.480469 293.28125 283.195312 290.910156 C 283.890625 288.597656 285.34375 286.902344 287.292969 286.128906 C 288.046875 285.832031 288.832031 285.6875 289.628906 285.6875 C 293.121094 285.6875 296.757812 288.441406 298.449219 292.714844 C 300.527344 297.960938 298.902344 303.539062 294.824219 305.15625 C 290.742188 306.769531 285.742188 303.8125 283.664062 298.570312 Z M 357.644531 331.59375 C 357.71875 331.808594 357.683594 332.046875 357.554688 332.234375 C 357.421875 332.417969 357.210938 332.527344 356.980469 332.527344 L 261.300781 332.527344 C 260.304688 332.527344 259.375 332.171875 258.636719 331.578125 C 258.023438 331.085938 257.539062 330.4375 257.265625 329.660156 L 230.996094 254.203125 C 230.691406 253.335938 230.824219 252.410156 231.359375 251.660156 C 231.890625 250.910156 232.722656 250.480469 233.640625 250.480469 L 328.90625 250.480469 C 329.203125 250.480469 329.46875 250.671875 329.570312 250.953125 L 329.894531 251.886719 L 357.484375 331.121094 Z M 282.359375 299.085938 C 284.269531 303.910156 288.445312 306.996094 292.507812 306.996094 C 293.46875 306.996094 294.421875 306.824219 295.34375 306.460938 C 300.136719 304.558594 302.117188 298.160156 299.757812 292.199219 C 297.394531 286.234375 291.574219 282.921875 286.777344 284.824219 C 284.421875 285.757812 282.675781 287.773438 281.851562 290.503906 C 281.046875 293.175781 281.226562 296.226562 282.359375 299.085938 Z M 409.933594 213.976562 C 408.019531 213.976562 406.371094 214.917969 405.660156 216.261719 C 405.421875 216.710938 405.289062 217.207031 405.289062 217.730469 C 405.289062 217.84375 405.320312 217.953125 405.332031 218.066406 C 405.546875 219.972656 407.515625 221.480469 409.933594 221.480469 C 412.496094 221.480469 414.578125 219.796875 414.578125 217.730469 C 414.578125 215.660156 412.496094 213.976562 409.933594 213.976562 Z M 109.78125 287.765625 C 109.839844 288.148438 109.574219 288.503906 109.191406 288.5625 C 109.15625 288.566406 109.121094 288.570312 109.085938 288.570312 C 108.746094 288.570312 108.445312 288.320312 108.394531 287.972656 L 108.304688 287.367188 C 104.550781 288.507812 84.488281 295.101562 74.519531 308.40625 C 70.46875 313.816406 69.488281 324.460938 69.535156 337.167969 C 69.535156 336.910156 69.671875 336.660156 69.917969 336.535156 C 70.265625 336.359375 70.6875 336.503906 70.859375 336.851562 L 70.9375 337.003906 L 82.542969 360.21875 L 109.300781 344.304688 L 97.398438 322.601562 C 97.214844 322.261719 97.335938 321.835938 97.675781 321.648438 C 98.015625 321.460938 98.445312 321.585938 98.628906 321.925781 L 110.507812 343.585938 L 145.605469 322.714844 C 146.199219 321.234375 149.539062 313.484375 154.390625 312.300781 L 155.539062 301.984375 C 155.664062 300.859375 156.664062 300.042969 157.808594 300.167969 L 166.691406 301.15625 L 168.761719 301.386719 C 166.988281 299.351562 165.234375 297.417969 163.558594 295.699219 C 157.765625 289.742188 138.265625 286.597656 134.765625 286.074219 L 134.84375 286.589844 C 134.898438 286.972656 134.632812 287.328125 134.25 287.386719 C 134.214844 287.390625 134.183594 287.394531 134.148438 287.394531 C 133.804688 287.394531 133.503906 287.144531 133.453125 286.792969 L 133.414062 286.53125 C 132.824219 287.367188 130.003906 290.8125 123.144531 291.652344 C 115.933594 292.527344 110.699219 288.34375 109.742188 287.511719 Z M 190.183594 328.855469 C 190.117188 328.765625 190.03125 328.644531 189.910156 328.476562 C 189.601562 328.042969 189.109375 327.359375 188.464844 326.476562 C 186.324219 323.53125 182.5 318.347656 178.082031 312.722656 C 178.308594 313.476562 178.550781 314.539062 178.578125 315.640625 C 178.597656 316.449219 178.507812 317.273438 178.195312 318.007812 C 178.609375 318.523438 179.265625 319.480469 179.375 320.542969 C 179.496094 321.703125 178.855469 323.433594 178.542969 324.191406 C 178.816406 324.691406 179.160156 325.664062 178.917969 327.109375 C 178.703125 328.386719 178.292969 329.183594 178 329.617188 C 178.234375 330.261719 178.539062 331.539062 178.015625 332.964844 C 177.539062 334.253906 176.398438 335.464844 174.570312 336.644531 L 173.914062 342.535156 L 173.789062 343.675781 C 173.671875 344.726562 172.777344 345.503906 171.746094 345.503906 C 171.671875 345.503906 171.59375 345.5 171.519531 345.492188 L 170.691406 345.398438 L 164.164062 344.671875 L 162.085938 344.441406 L 166.8125 349.785156 C 166.824219 349.800781 166.84375 349.808594 166.859375 349.824219 C 166.980469 349.9375 167.128906 350.011719 167.296875 350.023438 C 167.484375 350.046875 167.667969 349.96875 167.804688 349.847656 L 168.414062 349.304688 L 189.398438 330.640625 L 190.183594 329.941406 C 190.449219 329.703125 190.496094 329.304688 190.289062 329.011719 C 190.285156 329.003906 190.242188 328.941406 190.183594 328.855469 Z M 157.375 343.917969 L 152.992188 343.429688 C 152.722656 343.398438 152.476562 343.316406 152.253906 343.195312 C 145.917969 349.695312 120.003906 375.429688 104.824219 377.789062 C 103.929688 377.929688 103.054688 377.996094 102.210938 377.996094 C 89.066406 377.996094 81.933594 362.222656 81.625 361.515625 L 70.96875 340.203125 L 69.605469 337.480469 C 69.566406 337.398438 69.546875 337.3125 69.539062 337.226562 C 69.5625 343.5 69.832031 350.261719 70.109375 357.160156 C 70.351562 363.085938 70.597656 369.214844 70.683594 375.070312 C 70.945312 393.265625 71.621094 417.4375 71.628906 417.679688 C 71.640625 418.058594 71.949219 418.359375 72.332031 418.359375 L 161.023438 418.359375 C 161.214844 418.359375 161.398438 418.28125 161.527344 418.144531 C 161.660156 418.007812 161.730469 417.824219 161.722656 417.632812 L 158.785156 344.074219 Z M 87.519531 205.234375 L 105.21875 214.539062 C 105.320312 214.59375 105.433594 214.621094 105.542969 214.621094 C 105.691406 214.621094 105.835938 214.574219 105.957031 214.484375 C 106.171875 214.328125 106.28125 214.0625 106.238281 213.800781 L 102.855469 194.09375 L 117.175781 180.136719 C 117.367188 179.949219 117.433594 179.671875 117.351562 179.417969 C 117.269531 179.164062 117.050781 178.976562 116.785156 178.941406 L 97 176.066406 L 88.148438 158.132812 C 87.914062 157.652344 87.125 157.652344 86.890625 158.132812 L 78.042969 176.0625 L 58.253906 178.9375 C 57.992188 178.976562 57.769531 179.164062 57.6875 179.417969 C 57.605469 179.671875 57.675781 179.949219 57.867188 180.136719 L 72.183594 194.089844 L 68.804688 213.796875 C 68.757812 214.0625 68.867188 214.328125 69.082031 214.484375 C 69.300781 214.640625 69.585938 214.664062 69.824219 214.539062 Z M 140.132812 194.089844 L 136.753906 213.796875 C 136.707031 214.0625 136.816406 214.328125 137.03125 214.484375 C 137.25 214.640625 137.535156 214.664062 137.773438 214.539062 L 155.46875 205.234375 L 173.164062 214.539062 C 173.269531 214.59375 173.378906 214.617188 173.492188 214.617188 C 173.636719 214.617188 173.78125 214.574219 173.90625 214.484375 C 174.121094 214.328125 174.230469 214.0625 174.183594 213.796875 L 170.804688 194.089844 L 185.121094 180.136719 C 185.3125 179.949219 185.382812 179.671875 185.300781 179.417969 C 185.21875 179.164062 185 178.976562 184.734375 178.9375 L 164.945312 176.0625 L 156.097656 158.132812 C 155.863281 157.652344 155.074219 157.652344 154.839844 158.132812 L 145.988281 176.0625 L 126.203125 178.9375 C 125.9375 178.976562 125.71875 179.160156 125.636719 179.414062 C 125.554688 179.667969 125.621094 179.949219 125.816406 180.132812 Z M 241.441406 214.621094 C 241.585938 214.621094 241.730469 214.574219 241.855469 214.484375 C 242.070312 214.328125 242.179688 214.0625 242.132812 213.800781 L 238.945312 195.210938 L 238.753906 194.089844 L 239.046875 193.808594 L 253.070312 180.136719 C 253.261719 179.949219 253.332031 179.671875 253.25 179.417969 C 253.167969 179.164062 252.949219 178.976562 252.683594 178.9375 L 232.894531 176.0625 L 224.046875 158.132812 C 223.8125 157.652344 223.023438 157.652344 222.789062 158.132812 L 213.9375 176.0625 L 194.152344 178.9375 C 193.886719 178.976562 193.667969 179.160156 193.585938 179.414062 C 193.503906 179.667969 193.570312 179.949219 193.761719 180.132812 L 207.789062 193.804688 L 208.082031 194.089844 L 207.890625 195.210938 L 204.699219 213.796875 C 204.65625 214.0625 204.765625 214.328125 204.980469 214.484375 C 205.199219 214.640625 205.484375 214.664062 205.71875 214.539062 L 223.417969 205.234375 L 241.113281 214.539062 C 241.21875 214.59375 241.332031 214.621094 241.441406 214.621094 Z M 275.738281 193.808594 L 276.03125 194.089844 L 275.835938 195.210938 L 272.648438 213.800781 C 272.605469 214.0625 272.714844 214.328125 272.929688 214.484375 C 273.148438 214.644531 273.433594 214.664062 273.667969 214.539062 L 291.367188 205.234375 L 309.0625 214.539062 C 309.167969 214.59375 309.277344 214.621094 309.390625 214.621094 C 309.535156 214.621094 309.679688 214.574219 309.800781 214.484375 C 310.019531 214.328125 310.128906 214.0625 310.082031 213.800781 L 306.894531 195.210938 L 306.699219 194.089844 L 306.992188 193.808594 L 321.019531 180.136719 C 321.210938 179.949219 321.277344 179.671875 321.195312 179.417969 C 321.113281 179.164062 320.894531 178.976562 320.628906 178.9375 L 300.84375 176.0625 L 291.996094 158.132812 C 291.878906 157.894531 291.632812 157.742188 291.367188 157.742188 C 291.097656 157.742188 290.855469 157.894531 290.738281 158.132812 L 281.886719 176.0625 L 262.101562 178.9375 C 261.835938 178.976562 261.617188 179.160156 261.535156 179.414062 C 261.449219 179.667969 261.519531 179.949219 261.710938 180.132812 Z M 388.578125 178.9375 L 368.792969 176.0625 L 359.941406 158.132812 C 359.707031 157.652344 358.921875 157.652344 358.683594 158.132812 L 349.835938 176.0625 L 330.046875 178.9375 C 329.785156 178.976562 329.5625 179.160156 329.480469 179.414062 C 329.398438 179.667969 329.464844 179.949219 329.660156 180.132812 L 343.683594 193.804688 L 343.976562 194.089844 L 343.785156 195.210938 L 340.597656 213.796875 C 340.550781 214.0625 340.660156 214.328125 340.875 214.484375 C 341.09375 214.640625 341.378906 214.660156 341.613281 214.539062 L 359.3125 205.234375 L 377.007812 214.539062 C 377.113281 214.59375 377.222656 214.617188 377.335938 214.617188 C 377.480469 214.617188 377.625 214.574219 377.75 214.484375 C 377.964844 214.328125 378.074219 214.0625 378.027344 213.796875 L 374.839844 195.210938 L 374.648438 194.089844 L 374.941406 193.804688 L 388.964844 180.132812 C 389.15625 179.949219 389.226562 179.667969 389.144531 179.414062 C 389.0625 179.164062 388.84375 178.976562 388.578125 178.9375 Z M 388.578125 178.9375 " fill-opacity="1" fill-rule="nonzero"/></g><g clip-path="url(#de24d8a027)"><path fill="#231f20" d="M 306.894531 195.210938 L 306.703125 194.089844 L 306.996094 193.808594 L 343.683594 193.808594 L 343.976562 194.09375 L 343.785156 195.210938 Z M 512.039062 198.710938 L 512.039062 328.078125 C 512.039062 330.78125 509.839844 332.980469 507.136719 332.980469 L 221.511719 332.980469 C 215.207031 341.558594 205.96875 352.921875 200.117188 356.914062 C 196.714844 359.230469 192.132812 360.8125 187.375 360.8125 C 183.191406 360.8125 178.875 359.59375 175.09375 356.585938 C 170.921875 353.261719 166.925781 349.890625 166.886719 349.855469 C 166.875 349.847656 166.871094 349.832031 166.863281 349.820312 C 166.980469 349.933594 167.132812 350.011719 167.296875 350.019531 C 167.488281 350.042969 167.667969 349.96875 167.808594 349.84375 L 168.414062 349.304688 C 169.679688 350.367188 172.761719 352.933594 175.96875 355.484375 C 183.496094 361.476562 193.351562 359.824219 199.324219 355.753906 C 208.117188 349.757812 224.730469 326.753906 226.859375 322.566406 C 226.988281 322.316406 227.257812 322.171875 227.535156 322.183594 C 227.574219 322.1875 229.640625 322.335938 232.167969 322.3125 C 231.476562 322.03125 230.898438 321.65625 230.492188 321.175781 C 229.03125 319.449219 229.457031 317.675781 230.109375 316.589844 C 229.25 315.929688 228.730469 315.0625 228.664062 314.074219 C 228.585938 312.945312 229.082031 311.800781 230.035156 310.828125 C 229.207031 310.257812 228.621094 309.460938 228.398438 308.546875 C 228.203125 307.75 228.171875 306.222656 229.773438 304.488281 C 228.714844 303.539062 228.273438 302.09375 228.660156 300.574219 C 228.847656 299.855469 229.1875 299.21875 229.632812 298.699219 C 228.921875 298.722656 228.230469 298.75 227.5625 298.785156 C 227.226562 300.929688 227.386719 302.492188 227.578125 304.109375 C 227.773438 305.726562 227.972656 307.398438 227.582031 309.632812 C 226.90625 313.511719 224.5625 316.597656 224.464844 316.726562 C 224.324219 316.90625 224.117188 317.003906 223.90625 317.003906 C 223.757812 317.003906 223.609375 316.953125 223.480469 316.855469 C 223.171875 316.621094 223.113281 316.179688 223.347656 315.875 C 223.371094 315.84375 225.582031 312.921875 226.199219 309.394531 C 226.550781 307.363281 226.375 305.863281 226.183594 304.277344 C 225.972656 302.496094 225.75 300.648438 226.257812 297.984375 C 226.257812 297.96875 226.269531 297.960938 226.273438 297.945312 C 226.273438 297.933594 226.269531 297.921875 226.273438 297.914062 C 226.292969 297.855469 227.96875 292.226562 228.074219 289.488281 C 228.144531 287.644531 227.21875 286.507812 226.273438 286.199219 C 225.652344 285.996094 225.089844 286.152344 224.773438 286.621094 C 224.085938 287.636719 222.375 291.574219 220.71875 295.382812 C 219.496094 298.195312 218.230469 301.109375 217.273438 303.09375 C 214.644531 308.542969 213.507812 311.929688 213.5 311.960938 C 213.457031 312.09375 213.375 312.207031 213.269531 312.292969 L 190.421875 330.457031 C 190.308594 330.550781 190.167969 330.601562 190.023438 330.609375 L 189.398438 330.640625 L 190.183594 329.941406 C 190.449219 329.703125 190.496094 329.304688 190.289062 329.011719 C 190.285156 329.003906 190.238281 328.941406 190.179688 328.855469 L 212.234375 311.320312 C 212.515625 310.507812 213.667969 307.332031 216.007812 302.484375 C 216.953125 300.523438 218.214844 297.625 219.433594 294.824219 C 221.191406 290.777344 222.851562 286.957031 223.609375 285.835938 C 224.277344 284.847656 225.496094 284.46875 226.710938 284.863281 C 228.15625 285.335938 229.574219 286.96875 229.476562 289.542969 C 229.390625 291.773438 228.390625 295.585938 227.894531 297.363281 C 231.9375 297.171875 243.136719 296.90625 244.71875 299.679688 C 245.785156 301.554688 245.109375 303.246094 244.585938 304.117188 C 245.136719 304.628906 245.832031 305.578125 245.761719 307.066406 C 245.699219 308.402344 245.03125 309.308594 244.445312 309.851562 C 244.964844 310.347656 245.519531 311.160156 245.53125 312.359375 C 245.542969 313.734375 244.847656 314.8125 244.351562 315.40625 C 244.714844 315.964844 245.078125 316.921875 244.699219 318.28125 C 244.019531 320.738281 242.300781 322.199219 239.128906 323.023438 C 235.445312 323.980469 229.574219 323.71875 227.886719 323.617188 C 227.046875 325.109375 225.09375 328.035156 222.53125 331.578125 L 258.632812 331.578125 C 259.375 332.171875 260.304688 332.527344 261.300781 332.527344 L 356.980469 332.527344 C 357.207031 332.527344 357.421875 332.417969 357.550781 332.234375 C 357.683594 332.046875 357.71875 331.808594 357.644531 331.597656 L 357.480469 331.125 L 433.195312 331.125 C 433.828125 331.125 434.4375 330.855469 434.863281 330.382812 C 435.292969 329.90625 435.496094 329.289062 435.429688 328.644531 C 435.316406 327.511719 434.261719 326.628906 433.023438 326.628906 L 360.542969 326.628906 C 360.242188 326.628906 359.976562 326.441406 359.878906 326.15625 L 334.5625 253.441406 C 334.238281 252.511719 333.359375 251.886719 332.375 251.886719 L 329.890625 251.886719 L 329.566406 250.953125 C 329.46875 250.671875 329.203125 250.484375 328.902344 250.484375 L 332.375 250.484375 C 333.957031 250.484375 335.367188 251.484375 335.886719 252.976562 L 354.507812 306.460938 C 356.242188 305.742188 358.136719 305.386719 360.121094 305.492188 L 361.78125 305.558594 C 362.261719 305.578125 362.722656 305.597656 363.183594 305.617188 L 371.761719 300.585938 L 373.984375 293.277344 C 373.980469 293.285156 373.976562 293.300781 373.976562 293.304688 C 373.921875 293.515625 373.96875 293.738281 374.101562 293.910156 C 374.234375 294.082031 374.441406 294.179688 374.65625 294.179688 L 375.179688 294.179688 L 373.027344 301.257812 C 372.976562 301.429688 372.863281 301.570312 372.710938 301.660156 L 365.699219 305.773438 C 368.75 306.023438 371.324219 306.5625 373.464844 308.1875 C 377.28125 311.082031 381.625 319.03125 380.726562 321.476562 C 380.382812 322.414062 379.652344 323.074219 378.671875 323.339844 C 377.476562 323.660156 376.003906 323.347656 375.082031 322.582031 C 374.273438 321.914062 373.570312 320.722656 372.894531 319.566406 C 372.789062 319.386719 372.683594 319.207031 372.578125 319.035156 C 372.152344 320.84375 371.382812 323.648438 370.457031 325.058594 C 377.734375 324.503906 384.609375 322.804688 389.519531 320.894531 C 389.28125 320.746094 389.054688 320.578125 388.867188 320.351562 C 388.277344 319.648438 387.8125 318.347656 388.949219 316.136719 C 390.535156 313.0625 393.554688 309.863281 397.226562 307.5 L 397.808594 294.179688 L 397.824219 293.757812 C 397.628906 293.554688 397.324219 293.222656 396.960938 292.773438 C 395.304688 290.75 392.375 286.28125 392.375 280.050781 C 392.375 271.675781 400.265625 258.222656 400.601562 257.65625 C 400.796875 257.320312 401.234375 257.214844 401.5625 257.40625 C 401.894531 257.605469 402.007812 258.035156 401.808594 258.371094 C 401.726562 258.503906 393.777344 272.058594 393.777344 280.050781 C 393.777344 287.917969 398.96875 292.917969 399.019531 292.96875 C 399.023438 292.96875 399.023438 292.972656 399.023438 292.972656 C 399.09375 293.042969 399.148438 293.121094 399.1875 293.210938 C 399.195312 293.226562 399.191406 293.25 399.199219 293.265625 C 399.222656 293.34375 399.242188 293.425781 399.242188 293.507812 L 398.667969 306.632812 C 398.695312 306.617188 398.722656 306.605469 398.746094 306.589844 C 401.757812 304.925781 405.105469 303.84375 408.425781 303.84375 C 408.429688 303.84375 408.433594 303.84375 408.441406 303.84375 C 412.210938 303.84375 415.972656 304.523438 419.402344 305.761719 L 419.402344 294.921875 C 418.570312 293.761719 414.8125 287.867188 415.28125 276.230469 C 415.703125 265.6875 423.90625 239.703125 426.910156 230.507812 L 419.789062 238.558594 C 419.625 238.742188 419.378906 238.828125 419.136719 238.785156 C 418.894531 238.738281 418.695312 238.570312 418.605469 238.339844 L 415.527344 230.121094 L 415.324219 229.582031 C 415.1875 229.222656 415.375 228.816406 415.734375 228.679688 C 416.097656 228.546875 416.503906 228.726562 416.636719 229.09375 L 416.765625 229.425781 L 419.511719 236.753906 L 427.710938 227.480469 L 428.121094 227.015625 C 428.125 227.015625 428.128906 227.011719 428.128906 227.011719 C 428.199219 226.933594 428.289062 226.878906 428.386719 226.839844 C 428.414062 226.828125 428.441406 226.824219 428.46875 226.816406 C 428.542969 226.796875 428.617188 226.789062 428.691406 226.792969 C 428.714844 226.792969 428.734375 226.785156 428.753906 226.785156 C 428.773438 226.789062 428.785156 226.804688 428.800781 226.808594 C 428.824219 226.8125 428.847656 226.808594 428.871094 226.816406 C 428.925781 226.832031 428.964844 226.867188 429.007812 226.894531 C 429.035156 226.914062 429.0625 226.921875 429.089844 226.941406 C 429.171875 227.007812 429.234375 227.089844 429.28125 227.183594 C 429.28125 227.1875 429.289062 227.191406 429.289062 227.195312 L 429.542969 227.773438 L 434.386719 238.671875 L 453.617188 225.910156 L 454.265625 225.476562 C 454.585938 225.261719 455.023438 225.347656 455.242188 225.671875 C 455.453125 225.996094 455.367188 226.433594 455.042969 226.644531 L 454.753906 226.835938 L 434.46875 240.300781 C 434.351562 240.378906 434.21875 240.417969 434.082031 240.417969 C 434.015625 240.417969 433.949219 240.410156 433.886719 240.390625 C 433.6875 240.332031 433.523438 240.191406 433.441406 240.003906 L 428.742188 229.421875 C 426.339844 236.742188 417.117188 265.421875 416.683594 276.289062 C 416.191406 288.511719 420.605469 294.191406 420.652344 294.25 C 420.75 294.371094 420.804688 294.527344 420.804688 294.6875 L 420.804688 306.316406 C 422.546875 307.042969 424.191406 307.90625 425.671875 308.921875 L 466.519531 305.257812 L 467.171875 305.199219 L 464.921875 293.613281 C 464.921875 293.609375 464.921875 293.609375 464.921875 293.605469 L 464.917969 293.585938 L 457.988281 258.148438 C 457.910156 257.769531 458.160156 257.398438 458.539062 257.324219 C 458.914062 257.246094 459.289062 257.496094 459.363281 257.878906 L 466.1875 292.773438 L 493.507812 292.773438 C 493.855469 292.773438 494.144531 293.027344 494.203125 293.367188 C 494.277344 293.84375 496.03125 305.121094 494.195312 313.558594 C 492.277344 322.347656 484.203125 325.496094 470.867188 326.59375 C 470.410156 326.628906 469.933594 326.660156 469.464844 326.695312 C 466.976562 326.867188 464.339844 326.988281 461.511719 327.054688 L 459.40625 327.109375 C 456.398438 327.191406 452.628906 327.296875 448.546875 327.296875 C 444.59375 327.296875 440.347656 327.195312 436.210938 326.890625 C 436.539062 327.367188 436.765625 327.910156 436.824219 328.503906 C 436.917969 329.441406 436.632812 330.367188 436.0625 331.105469 C 436.003906 331.175781 435.960938 331.257812 435.902344 331.324219 C 435.28125 332.011719 434.417969 332.414062 433.5 332.496094 C 436.933594 332.515625 440.390625 332.523438 443.757812 332.523438 C 454.578125 332.523438 464.488281 332.410156 469.847656 332.066406 C 470.054688 332.050781 470.257812 332.03125 470.460938 332.011719 L 470.859375 331.972656 C 471.050781 331.957031 471.230469 331.863281 471.351562 331.714844 C 471.382812 331.671875 471.398438 331.625 471.417969 331.578125 L 507.132812 331.578125 C 509.0625 331.578125 510.632812 330.007812 510.632812 328.078125 L 510.632812 198.710938 C 510.632812 196.78125 509.0625 195.210938 507.132812 195.210938 L 462.929688 195.210938 C 463.394531 196.441406 463.660156 197.769531 463.660156 199.164062 C 463.660156 201.230469 463.089844 203.164062 462.109375 204.832031 C 465.945312 207.914062 469.699219 212.015625 472.011719 217.289062 C 474.96875 224.027344 475.96875 231.480469 476.207031 237.441406 C 475.730469 237.003906 475.242188 236.574219 474.742188 236.15625 C 468.339844 230.8125 460.433594 227.453125 456.820312 226.089844 C 456.152344 225.839844 455.628906 225.652344 455.292969 225.535156 C 454.890625 223.351562 454.449219 221.128906 453.972656 218.960938 C 453.300781 215.917969 452.53125 213 451.765625 210.351562 C 450.332031 210.265625 448.96875 209.910156 447.726562 209.335938 L 447.726562 216.59375 L 447.5625 216.398438 C 447.34375 216.132812 446.96875 216.066406 446.671875 216.238281 L 446.320312 216.441406 L 446.320312 208.558594 C 443.25 206.554688 441.214844 203.09375 441.214844 199.164062 C 441.214844 196.597656 442.089844 194.238281 443.542969 192.34375 C 434.113281 186.121094 433.03125 176.769531 432.921875 174.300781 C 416.78125 171.496094 412.363281 178.773438 411.785156 179.902344 C 412.117188 182.441406 412.628906 184.929688 413.078125 187.132812 C 413.609375 189.707031 414.066406 191.929688 414.152344 193.722656 C 414.226562 195.164062 414.023438 196.816406 413.8125 198.566406 C 413.253906 203.152344 412.617188 208.34375 416.253906 212.675781 C 418.753906 215.648438 422.296875 217.457031 426.242188 217.773438 C 429.539062 218.035156 434.65625 217.355469 440.160156 212.59375 C 440.453125 212.34375 440.894531 212.375 441.148438 212.667969 C 441.402344 212.960938 441.371094 213.402344 441.078125 213.65625 C 435.902344 218.132812 431.015625 219.226562 427.476562 219.226562 C 427.003906 219.226562 426.554688 219.207031 426.128906 219.171875 C 424.96875 219.082031 423.84375 218.859375 422.761719 218.539062 L 422.761719 219.789062 L 422.585938 219.589844 C 422.441406 219.425781 422.226562 219.339844 422.007812 219.355469 C 421.792969 219.371094 421.59375 219.488281 421.472656 219.667969 L 421.359375 219.847656 L 421.359375 218.050781 C 418.976562 217.097656 416.859375 215.582031 415.179688 213.578125 C 414.070312 212.257812 413.328125 210.859375 412.832031 209.433594 C 411.152344 208.695312 409.691406 207.554688 408.5625 206.136719 C 407.816406 206.488281 404.925781 208.050781 404.414062 211.179688 C 404.039062 213.457031 404.9375 215.246094 405.65625 216.265625 C 405.417969 216.714844 405.285156 217.210938 405.285156 217.730469 C 405.285156 217.847656 405.316406 217.957031 405.328125 218.066406 C 404.644531 217.367188 402.40625 214.746094 403.027344 210.957031 C 403.617188 207.375 406.585938 205.554688 407.753906 204.96875 C 406.722656 203.273438 406.121094 201.289062 406.121094 199.164062 C 406.121094 197.773438 406.386719 196.445312 406.851562 195.214844 L 374.839844 195.214844 L 374.648438 194.09375 L 374.941406 193.808594 L 407.484375 193.808594 C 408.535156 191.878906 410.140625 190.292969 412.082031 189.257812 C 411.964844 188.667969 411.839844 188.050781 411.707031 187.414062 C 411.238281 185.136719 410.710938 182.558594 410.371094 179.902344 C 410.324219 179.605469 409.273438 172.664062 412.984375 169.378906 C 412.992188 169.371094 412.996094 169.363281 413.003906 169.355469 C 413.015625 169.34375 413.027344 169.335938 413.035156 169.324219 C 413.042969 169.320312 413.046875 169.3125 413.054688 169.308594 C 413.058594 169.304688 413.0625 169.300781 413.066406 169.296875 C 413.417969 168.9375 413.808594 168.597656 414.210938 168.269531 C 416.410156 163.632812 419.796875 160.429688 429.011719 159.855469 C 430.375 159.769531 431.828125 159.746094 433.308594 159.816406 C 433.3125 159.816406 433.316406 159.8125 433.316406 159.8125 C 433.839844 159.828125 446.230469 160.21875 452.957031 167.488281 C 457.34375 172.234375 457.171875 180.808594 455.597656 188.402344 C 458.480469 189.25 460.886719 191.21875 462.300781 193.808594 L 507.136719 193.808594 C 509.839844 193.808594 512.039062 196.007812 512.039062 198.710938 Z M 412.355469 190.71875 C 409.46875 192.429688 407.527344 195.570312 407.527344 199.160156 C 407.527344 202.742188 409.460938 205.875 412.332031 207.589844 C 411.691406 204.421875 412.078125 201.199219 412.417969 198.394531 C 412.625 196.707031 412.820312 195.109375 412.753906 193.792969 C 412.710938 192.898438 412.558594 191.863281 412.355469 190.71875 Z M 443.894531 170.484375 C 443.933594 170.554688 443.976562 170.625 444.015625 170.695312 C 444.082031 170.8125 444.152344 170.929688 444.21875 171.050781 C 447.511719 177.035156 447.777344 185.78125 447.753906 188.976562 C 448.976562 188.410156 450.320312 188.0625 451.730469 187.972656 C 451.679688 185.148438 451.269531 173.976562 448.011719 168.445312 C 444.078125 161.773438 435.566406 160.855469 429.101562 161.253906 C 422.164062 161.683594 418.867188 163.59375 416.777344 166.59375 C 418.117188 165.878906 419.605469 165.296875 421.222656 164.855469 C 422.988281 164.339844 424.863281 164.035156 426.847656 163.933594 C 426.867188 163.933594 426.882812 163.933594 426.902344 163.929688 C 427.328125 163.910156 427.746094 163.878906 428.179688 163.878906 C 428.242188 163.878906 428.304688 163.878906 428.363281 163.878906 C 428.570312 163.878906 428.75 163.890625 428.953125 163.894531 C 429.101562 163.894531 429.242188 163.882812 429.394531 163.886719 C 429.617188 163.890625 429.832031 163.914062 430.050781 163.925781 C 430.535156 163.945312 431.007812 163.972656 431.464844 164.007812 C 431.492188 164.011719 431.523438 164.011719 431.554688 164.015625 C 435.839844 164.363281 438.988281 165.457031 441.34375 167.441406 C 441.707031 167.730469 442.027344 168.039062 442.320312 168.363281 C 442.355469 168.398438 442.398438 168.429688 442.433594 168.46875 C 442.4375 168.472656 442.441406 168.476562 442.445312 168.480469 C 442.445312 168.480469 442.445312 168.480469 442.449219 168.484375 C 442.453125 168.488281 442.457031 168.496094 442.464844 168.503906 C 442.972656 169.058594 443.449219 169.726562 443.894531 170.484375 Z M 462.261719 199.164062 C 462.261719 193.75 457.855469 189.34375 452.441406 189.34375 C 450.601562 189.34375 448.882812 189.859375 447.410156 190.746094 L 445.085938 192.679688 C 443.558594 194.410156 442.621094 196.679688 442.621094 199.164062 C 442.621094 204.578125 447.027344 208.980469 452.441406 208.980469 C 457.855469 208.980469 462.261719 204.578125 462.261719 199.164062 Z M 369.046875 324.597656 C 369.976562 323.722656 371.078125 319.566406 371.554688 317.152344 C 371.554688 317.144531 371.5625 317.144531 371.5625 317.136719 C 371.5625 317.128906 371.5625 317.121094 371.5625 317.113281 C 372.023438 315.332031 372.527344 312.699219 372.53125 312.675781 C 372.605469 312.292969 372.96875 312.046875 373.351562 312.117188 C 373.734375 312.191406 373.984375 312.558594 373.910156 312.9375 C 373.890625 313.039062 373.453125 315.335938 373.007812 317.125 C 373.363281 317.605469 373.726562 318.210938 374.105469 318.855469 C 374.691406 319.855469 375.359375 320.988281 375.980469 321.5 C 376.554688 321.980469 377.558594 322.183594 378.304688 321.984375 C 378.851562 321.835938 379.21875 321.503906 379.40625 320.992188 C 379.925781 319.585938 376.46875 312.226562 372.621094 309.304688 C 369.964844 307.292969 366.328125 307.144531 361.726562 306.960938 L 360.058594 306.890625 C 358.261719 306.804688 356.542969 307.136719 354.976562 307.796875 L 355.921875 310.519531 C 356.082031 310.4375 356.277344 310.421875 356.460938 310.484375 C 356.828125 310.609375 357.019531 311.011719 356.894531 311.375 C 356.890625 311.386719 356.757812 311.785156 356.59375 312.445312 L 359.410156 320.539062 C 359.371094 319.484375 359.398438 318.289062 359.5 316.914062 C 359.722656 313.964844 360.695312 311.046875 360.734375 310.921875 C 360.859375 310.554688 361.257812 310.351562 361.625 310.480469 C 361.992188 310.605469 362.1875 311 362.066406 311.371094 C 362.058594 311.398438 361.109375 314.25 360.902344 317.019531 C 360.621094 320.734375 360.878906 323.148438 361.691406 324.40625 C 361.957031 324.824219 362.421875 325.28125 363.0625 325.214844 C 363.6875 325.136719 364.269531 324.5625 364.582031 323.746094 C 364.3125 321.363281 364.660156 315.007812 366.070312 311.355469 C 366.210938 310.992188 366.617188 310.816406 366.980469 310.953125 C 367.339844 311.09375 367.523438 311.5 367.382812 311.863281 C 366.0625 315.277344 365.695312 321.621094 365.996094 323.757812 C 366.117188 324.625 366.609375 324.972656 367.003906 325.109375 C 367.65625 325.335938 368.480469 325.132812 369.046875 324.597656 Z M 396.582031 322.308594 C 396.304688 321.484375 396.21875 320.335938 396.476562 318.992188 C 396.253906 319.125 396.011719 319.257812 395.796875 319.382812 C 395.414062 319.609375 395.050781 319.824219 394.691406 320.027344 C 391.226562 322.109375 385.59375 324 379.359375 325.226562 L 396.453125 325.226562 Z M 419.40625 323.617188 C 417.324219 322.738281 415.648438 321.648438 414.496094 320.324219 C 413.75 321.140625 413.078125 321.960938 412.511719 322.652344 C 412.164062 323.078125 411.863281 323.449219 411.609375 323.734375 C 410.851562 324.597656 409.785156 325.082031 408.675781 325.082031 C 408.640625 325.082031 408.605469 325.082031 408.570312 325.082031 C 407.644531 325.054688 406.8125 324.691406 406.351562 324.105469 C 406.332031 324.078125 406.324219 324.046875 406.304688 324.015625 C 405.683594 324.496094 404.855469 324.777344 403.976562 324.777344 C 403.882812 324.777344 403.785156 324.777344 403.6875 324.769531 C 402.707031 324.703125 401.863281 324.300781 401.363281 323.664062 C 401.363281 323.664062 401.363281 323.660156 401.359375 323.660156 C 400.746094 324.109375 400.023438 324.371094 399.308594 324.371094 C 399.144531 324.371094 398.980469 324.359375 398.816406 324.332031 C 398.496094 324.277344 398.207031 324.15625 397.9375 324.003906 C 397.929688 324 397.921875 323.992188 397.914062 323.988281 L 397.859375 325.222656 L 419.40625 325.222656 Z M 424.488281 325.226562 C 423.183594 324.914062 421.953125 324.558594 420.808594 324.152344 L 420.808594 325.226562 Z M 459.371094 325.707031 L 461.480469 325.652344 C 480.15625 325.203125 490.683594 323.097656 492.828125 313.261719 C 494.375 306.15625 493.238281 296.628906 492.90625 294.179688 L 466.464844 294.179688 L 468.703125 305.695312 C 468.738281 305.890625 468.691406 306.089844 468.574219 306.25 C 468.453125 306.410156 468.273438 306.511719 468.074219 306.527344 L 425.550781 310.34375 C 425.386719 310.355469 425.21875 310.316406 425.082031 310.21875 C 420.585938 307.058594 414.519531 305.25 408.441406 305.25 C 408.4375 305.25 408.433594 305.25 408.429688 305.25 C 401.078125 305.253906 393.066406 311.214844 390.199219 316.78125 C 389.585938 317.96875 389.496094 318.917969 389.941406 319.449219 C 390.355469 319.941406 391.179688 320.070312 391.714844 319.898438 C 392.6875 319.59375 393.796875 318.933594 395.082031 318.175781 C 395.710938 317.800781 396.378906 317.414062 397.070312 317.039062 C 397.332031 316.40625 397.65625 315.753906 398.085938 315.082031 C 400.511719 311.300781 404.800781 308.121094 404.980469 307.992188 C 405.292969 307.757812 405.730469 307.824219 405.960938 308.140625 C 406.191406 308.449219 406.125 308.890625 405.8125 309.121094 C 405.808594 309.125 405.675781 309.222656 405.464844 309.386719 C 404.414062 310.210938 401.171875 312.871094 399.269531 315.839844 C 397.613281 318.429688 397.507812 320.71875 397.917969 321.894531 C 398.132812 322.496094 398.523438 322.859375 399.050781 322.949219 C 399.652344 323.046875 400.328125 322.773438 400.828125 322.273438 C 400.613281 320.753906 401.210938 318.550781 403.15625 316.03125 C 405.011719 313.628906 407.875 311 409.160156 309.863281 C 409.535156 309.527344 409.785156 309.316406 409.824219 309.28125 C 410.121094 309.03125 410.566406 309.066406 410.8125 309.363281 C 410.996094 309.578125 411.023438 309.875 410.910156 310.117188 C 410.871094 310.203125 410.8125 310.285156 410.734375 310.351562 C 410.691406 310.390625 406.574219 313.902344 404.265625 316.886719 C 401.941406 319.902344 401.929688 322.113281 402.46875 322.800781 C 402.71875 323.117188 403.207031 323.332031 403.78125 323.367188 C 404.488281 323.429688 405.183594 323.199219 405.589844 322.804688 C 405.644531 322.75 405.710938 322.71875 405.777344 322.6875 C 405.53125 320.878906 406.773438 318.746094 407.867188 317.15625 C 409.566406 314.679688 413.371094 312.058594 414.804688 311.121094 C 415.121094 310.914062 415.324219 310.789062 415.363281 310.761719 C 415.695312 310.558594 416.128906 310.664062 416.328125 310.992188 C 416.535156 311.320312 416.433594 311.753906 416.101562 311.957031 C 416.101562 311.957031 416.082031 311.96875 416.070312 311.976562 C 415.730469 312.191406 410.871094 315.261719 409.023438 317.953125 C 407.25 320.53125 406.722656 322.308594 407.457031 323.238281 C 407.621094 323.449219 408.039062 323.664062 408.609375 323.679688 C 409.046875 323.714844 409.867188 323.59375 410.558594 322.808594 C 410.800781 322.53125 411.089844 322.171875 411.425781 321.765625 C 413.023438 319.816406 415.429688 316.878906 418.078125 315.65625 C 418.09375 315.648438 418.105469 315.640625 418.121094 315.632812 C 418.472656 315.476562 418.890625 315.628906 419.050781 315.984375 C 419.210938 316.335938 419.054688 316.753906 418.699219 316.910156 C 417.578125 317.417969 416.476562 318.320312 415.460938 319.324219 C 421.617188 326.730469 447.980469 326.015625 459.371094 325.707031 Z M 231.1875 303.789062 C 233.382812 304.984375 240.628906 305.640625 243.148438 303.742188 C 243.359375 303.480469 244.4375 302.019531 243.5 300.375 C 242.8125 299.167969 237.894531 298.707031 232.855469 298.671875 C 232.785156 298.691406 232.71875 298.714844 232.644531 298.714844 C 232.636719 298.714844 232.632812 298.714844 232.628906 298.714844 C 231.230469 298.714844 230.296875 299.859375 230.023438 300.925781 C 229.90625 301.386719 229.640625 302.949219 231.1875 303.789062 Z M 232.035156 310.210938 C 234.308594 310.785156 241.0625 310.660156 242.839844 309.296875 C 242.863281 309.28125 242.890625 309.277344 242.914062 309.261719 C 242.929688 309.253906 242.9375 309.234375 242.949219 309.230469 C 243 309.203125 244.292969 308.511719 244.359375 307 C 244.40625 306.007812 243.9375 305.414062 243.605469 305.117188 C 242.171875 305.980469 239.957031 306.320312 237.710938 306.320312 C 235.121094 306.320312 232.503906 305.871094 231.007812 305.25 C 229.988281 306.269531 229.535156 307.289062 229.761719 308.214844 C 229.988281 309.136719 230.878906 309.921875 232.035156 310.210938 Z M 231.425781 315.800781 C 234.511719 317.480469 241.382812 316.414062 242.917969 314.878906 C 242.925781 314.871094 242.9375 314.871094 242.941406 314.863281 C 242.949219 314.855469 242.953125 314.847656 242.957031 314.84375 C 242.96875 314.835938 244.140625 313.792969 244.128906 312.371094 C 244.121094 311.460938 243.597656 310.929688 243.257812 310.675781 C 241.632812 311.589844 238.539062 311.929688 235.855469 311.929688 C 234.113281 311.929688 232.546875 311.789062 231.691406 311.574219 C 231.59375 311.550781 231.503906 311.515625 231.410156 311.484375 C 230.515625 312.238281 230.003906 313.148438 230.0625 313.980469 C 230.113281 314.714844 230.585938 315.34375 231.425781 315.800781 Z M 240.660156 320.992188 C 242.453125 320.140625 243.039062 319.019531 243.347656 317.90625 C 243.546875 317.195312 243.433594 316.691406 243.28125 316.363281 C 241.691406 317.394531 238.710938 318.058594 235.875 318.058594 C 234.191406 318.058594 232.585938 317.804688 231.324219 317.277344 C 230.960938 317.859375 230.507812 319.023438 231.566406 320.273438 C 232.753906 321.679688 236.988281 322.003906 240.660156 320.992188 Z M 275.835938 195.210938 L 276.03125 194.089844 L 275.738281 193.808594 L 239.046875 193.808594 L 238.753906 194.089844 L 238.945312 195.210938 Z M 189.871094 328.078125 L 189.871094 198.710938 C 189.871094 196.78125 191.441406 195.210938 193.367188 195.210938 L 207.890625 195.210938 L 208.082031 194.089844 L 207.789062 193.808594 L 193.371094 193.808594 C 190.664062 193.808594 188.46875 196.007812 188.46875 198.710938 L 188.46875 326.476562 C 189.109375 327.359375 189.601562 328.046875 189.910156 328.476562 C 189.894531 328.34375 189.871094 328.214844 189.871094 328.078125 Z M 419.441406 207.082031 C 419.371094 206.863281 419.410156 206.625 419.546875 206.445312 C 419.683594 206.261719 419.890625 206.171875 420.128906 206.164062 C 420.191406 206.167969 427.089844 206.332031 430.195312 204.625 C 430.402344 204.511719 430.660156 204.511719 430.871094 204.628906 C 431.082031 204.746094 431.21875 204.960938 431.234375 205.203125 C 431.335938 206.957031 430.457031 210.519531 426.402344 211.445312 C 425.921875 211.554688 425.464844 211.605469 425.035156 211.605469 C 421.804688 211.605469 419.988281 208.773438 419.441406 207.082031 Z M 421.1875 207.570312 C 421.847656 208.789062 423.351562 210.703125 426.089844 210.078125 C 428.726562 209.472656 429.511719 207.582031 429.742188 206.363281 C 427 207.378906 423.082031 207.550781 421.1875 207.570312 Z M 417.203125 189.320312 C 416.816406 189.335938 416.515625 189.664062 416.535156 190.054688 L 416.671875 192.945312 C 416.6875 193.320312 417 193.613281 417.371094 193.613281 C 417.382812 193.613281 417.394531 193.613281 417.402344 193.613281 C 417.792969 193.59375 418.089844 193.265625 418.070312 192.878906 L 417.9375 189.988281 C 417.921875 189.601562 417.582031 189.296875 417.203125 189.320312 Z M 429.046875 192.894531 C 429.058594 192.894531 429.070312 192.894531 429.078125 192.894531 C 429.464844 192.875 429.765625 192.546875 429.746094 192.160156 L 429.613281 189.269531 C 429.597656 188.878906 429.265625 188.578125 428.878906 188.597656 C 428.492188 188.617188 428.191406 188.945312 428.210938 189.332031 L 428.347656 192.226562 C 428.363281 192.601562 428.671875 192.894531 429.046875 192.894531 Z M 419.828125 200.832031 C 420.441406 201.695312 421.703125 202.183594 423.324219 202.183594 C 423.445312 202.183594 423.566406 202.179688 423.6875 202.175781 C 424.078125 202.15625 424.378906 201.828125 424.359375 201.441406 C 424.34375 201.054688 424 200.746094 423.628906 200.773438 C 422.355469 200.828125 421.339844 200.539062 420.972656 200.019531 C 420.75 199.703125 420.757812 199.25 420.992188 198.667969 C 423.101562 193.457031 422.609375 190.597656 422.585938 190.476562 C 422.515625 190.097656 422.160156 189.84375 421.773438 189.917969 C 421.394531 189.984375 421.140625 190.347656 421.207031 190.730469 C 421.210938 190.753906 421.628906 193.359375 419.691406 198.140625 C 419.160156 199.453125 419.472656 200.328125 419.828125 200.832031 Z M 419.179688 185.816406 C 419.5625 185.894531 419.929688 185.644531 420.007812 185.269531 C 420.082031 184.890625 419.839844 184.519531 419.460938 184.441406 C 419.324219 184.410156 416.191406 183.792969 414.292969 185.683594 C 414.019531 185.957031 414.015625 186.402344 414.289062 186.675781 C 414.425781 186.8125 414.605469 186.882812 414.785156 186.882812 C 414.964844 186.882812 415.144531 186.816406 415.28125 186.679688 C 416.644531 185.324219 419.152344 185.8125 419.179688 185.816406 Z M 432.882812 185.960938 C 433.136719 185.960938 433.382812 185.824219 433.503906 185.582031 C 433.683594 185.234375 433.546875 184.8125 433.203125 184.636719 C 428.917969 182.429688 426.246094 184.109375 426.132812 184.179688 C 425.808594 184.390625 425.71875 184.816406 425.925781 185.144531 C 426.132812 185.46875 426.566406 185.566406 426.890625 185.363281 C 426.976562 185.308594 429.042969 184.078125 432.5625 185.882812 C 432.664062 185.9375 432.773438 185.960938 432.882812 185.960938 Z M 105.976562 271.742188 L 108.304688 287.367188 L 108.394531 287.972656 C 108.445312 288.320312 108.746094 288.570312 109.089844 288.570312 C 109.125 288.570312 109.15625 288.566406 109.191406 288.5625 C 109.574219 288.503906 109.839844 288.148438 109.785156 287.765625 L 109.746094 287.511719 L 107.261719 270.847656 C 107.234375 270.65625 107.128906 270.484375 106.96875 270.375 C 106.828125 270.277344 106.660156 270.242188 106.492188 270.261719 C 106.46875 270.265625 106.445312 270.257812 106.425781 270.261719 C 106.386719 270.269531 102.492188 271.042969 100.265625 268.59375 C 98.730469 266.910156 97.769531 264.214844 97.925781 262.039062 C 97.984375 261.222656 98.234375 260.101562 99.09375 259.394531 C 101.328125 257.558594 104.25 259.191406 104.421875 259.289062 C 104.5 259.339844 104.679688 259.449219 104.914062 259.589844 C 105.882812 260.160156 107.972656 261.273438 109.589844 261.273438 C 109.855469 261.273438 110.109375 261.242188 110.34375 261.171875 C 110.902344 261.007812 111.324219 260.640625 111.558594 260.117188 C 112.675781 257.609375 113.78125 244.101562 114.074219 240.28125 C 116.46875 240.882812 123.578125 242.53125 129.460938 242.53125 C 129.472656 242.53125 129.488281 242.53125 129.5 242.53125 C 132.480469 242.527344 135.972656 241.640625 137.75 239.972656 C 138.054688 241.363281 138.125 242.582031 138.136719 243.191406 C 138.191406 245.820312 138.046875 248.429688 137.914062 250.730469 C 137.769531 253.355469 137.640625 255.625 137.816406 257.410156 C 137.953125 258.847656 138.394531 260.453125 138.863281 262.152344 C 140.085938 266.605469 141.472656 271.652344 138.507812 276.464844 C 136.472656 279.769531 133.226562 282.082031 129.371094 282.96875 C 126.132812 283.710938 120.984375 283.78125 114.847656 279.878906 C 114.519531 279.671875 114.085938 279.769531 113.878906 280.09375 C 113.667969 280.421875 113.765625 280.855469 114.09375 281.0625 C 118.574219 283.914062 122.585938 284.769531 125.792969 284.769531 C 127.273438 284.769531 128.582031 284.589844 129.6875 284.335938 C 130.820312 284.074219 131.902344 283.691406 132.925781 283.214844 L 133.414062 286.523438 L 133.453125 286.789062 C 133.503906 287.136719 133.804688 287.390625 134.148438 287.390625 C 134.183594 287.390625 134.214844 287.386719 134.25 287.382812 C 134.632812 287.324219 134.902344 286.96875 134.84375 286.585938 L 134.765625 286.066406 L 134.242188 282.527344 C 136.460938 281.234375 138.332031 279.425781 139.703125 277.199219 C 142.988281 271.867188 141.449219 266.273438 140.214844 261.777344 C 139.765625 260.136719 139.339844 258.589844 139.210938 257.273438 C 139.050781 255.59375 139.171875 253.375 139.316406 250.808594 C 139.445312 248.480469 139.59375 245.84375 139.539062 243.160156 C 139.523438 242.316406 139.402344 240.425781 138.78125 238.398438 C 139.164062 237.222656 139.136719 235.367188 137.960938 233.386719 C 136.488281 230.917969 132.921875 227.777344 124.292969 226.859375 C 113.925781 225.757812 102.714844 230.671875 100.292969 237.378906 C 98.164062 243.273438 100.21875 254.691406 100.707031 257.191406 C 99.875 257.316406 99.011719 257.640625 98.203125 258.308594 C 97.21875 259.117188 96.636719 260.367188 96.523438 261.933594 C 96.335938 264.5 97.421875 267.558594 99.222656 269.535156 C 101.367188 271.890625 104.542969 271.886719 105.976562 271.742188 Z M 133.460938 254.417969 C 133.074219 254.457031 132.796875 254.800781 132.832031 255.1875 L 133.121094 258.066406 C 133.160156 258.429688 133.464844 258.699219 133.820312 258.699219 C 133.84375 258.699219 133.867188 258.695312 133.890625 258.695312 C 134.277344 258.65625 134.558594 258.3125 134.519531 257.925781 L 134.230469 255.046875 C 134.191406 254.664062 133.84375 254.386719 133.460938 254.417969 Z M 122.164062 259.695312 C 122.1875 259.695312 122.210938 259.691406 122.238281 259.691406 C 122.621094 259.652344 122.902344 259.308594 122.867188 258.921875 L 122.574219 256.042969 C 122.535156 255.65625 122.207031 255.382812 121.804688 255.414062 C 121.421875 255.453125 121.140625 255.796875 121.179688 256.183594 L 121.46875 259.0625 C 121.503906 259.421875 121.808594 259.695312 122.164062 259.695312 Z M 128.78125 266.6875 C 128.394531 266.726562 128.113281 267.074219 128.152344 267.460938 C 128.191406 267.820312 128.496094 268.089844 128.851562 268.089844 C 128.875 268.089844 128.902344 268.085938 128.925781 268.085938 C 130.714844 267.898438 132.035156 267.207031 132.550781 266.191406 C 132.828125 265.640625 133.007812 264.730469 132.292969 263.507812 C 129.695312 259.09375 129.707031 256.460938 129.710938 256.398438 C 129.722656 256.011719 129.417969 255.691406 129.03125 255.675781 C 128.660156 255.640625 128.320312 255.964844 128.308594 256.351562 C 128.300781 256.472656 128.234375 259.375 131.082031 264.222656 C 131.398438 264.761719 131.472656 265.210938 131.296875 265.558594 C 131.011719 266.125 130.046875 266.558594 128.78125 266.6875 Z M 136.242188 252.519531 C 136.492188 252.519531 136.734375 252.386719 136.859375 252.148438 C 137.042969 251.808594 136.914062 251.382812 136.570312 251.199219 C 134.25 249.960938 131.550781 250.382812 131.4375 250.398438 C 131.054688 250.460938 130.792969 250.820312 130.855469 251.203125 C 130.917969 251.585938 131.269531 251.847656 131.660156 251.785156 C 131.683594 251.78125 134 251.421875 135.910156 252.4375 C 136.015625 252.492188 136.128906 252.519531 136.242188 252.519531 Z M 124.273438 250.925781 C 124.097656 250.910156 120.085938 250.640625 117.480469 253.316406 C 117.210938 253.59375 117.214844 254.039062 117.492188 254.308594 C 117.628906 254.441406 117.804688 254.507812 117.984375 254.507812 C 118.164062 254.507812 118.347656 254.4375 118.484375 254.296875 C 120.625 252.097656 124.128906 252.328125 124.164062 252.328125 C 124.542969 252.355469 124.886719 252.066406 124.917969 251.679688 C 124.945312 251.292969 124.65625 250.957031 124.273438 250.925781 Z M 172.140625 338 C 165.542969 341.199219 155.339844 341.851562 153.460938 341.945312 C 153.433594 341.976562 153.386719 342.023438 153.355469 342.054688 C 153.113281 342.308594 152.742188 342.695312 152.253906 343.195312 C 145.917969 349.695312 120.003906 375.429688 104.824219 377.789062 C 103.929688 377.929688 103.054688 377.996094 102.210938 377.996094 C 89.066406 377.996094 81.933594 362.222656 81.625 361.515625 L 70.96875 340.203125 L 69.605469 337.480469 C 69.5625 337.398438 69.542969 337.3125 69.539062 337.226562 C 69.535156 337.207031 69.539062 337.191406 69.539062 337.167969 C 69.535156 336.910156 69.671875 336.660156 69.917969 336.535156 C 70.265625 336.359375 70.6875 336.503906 70.859375 336.851562 L 70.9375 337.003906 L 82.542969 360.21875 L 109.300781 344.304688 L 97.398438 322.601562 C 97.214844 322.261719 97.339844 321.835938 97.679688 321.648438 C 98.019531 321.460938 98.445312 321.585938 98.632812 321.925781 L 110.507812 343.585938 L 145.605469 322.714844 C 146.199219 321.234375 149.542969 313.484375 154.390625 312.300781 C 154.453125 312.285156 154.515625 312.257812 154.582031 312.242188 C 154.949219 312.15625 155.316406 312.398438 155.40625 312.765625 L 155.640625 313.757812 L 156.558594 317.613281 C 159.445312 317.015625 170.554688 314.710938 172.914062 314.292969 C 174.304688 314.046875 175.285156 313.132812 175.855469 312.4375 C 176.234375 311.972656 176.433594 311.601562 176.441406 311.59375 C 176.566406 311.351562 176.808594 311.207031 177.09375 311.214844 C 177.203125 311.21875 177.300781 311.265625 177.390625 311.316406 C 177.53125 311.390625 177.648438 311.496094 177.710938 311.644531 C 177.734375 311.699219 177.898438 312.109375 178.082031 312.722656 C 178.308594 313.480469 178.550781 314.542969 178.578125 315.640625 C 178.597656 316.449219 178.507812 317.277344 178.195312 318.011719 C 178.609375 318.527344 179.265625 319.484375 179.375 320.546875 C 179.496094 321.707031 178.855469 323.4375 178.542969 324.195312 C 178.816406 324.695312 179.160156 325.664062 178.917969 327.109375 C 178.703125 328.386719 178.292969 329.1875 178 329.617188 C 178.234375 330.261719 178.539062 331.542969 178.015625 332.96875 C 177.539062 334.253906 176.398438 335.46875 174.570312 336.644531 C 174.113281 336.941406 173.609375 337.234375 173.058594 337.527344 C 172.761719 337.683594 172.464844 337.839844 172.140625 338 Z M 171.527344 336.734375 C 174.4375 335.320312 176.179688 333.890625 176.699219 332.480469 C 176.9375 331.828125 176.925781 331.21875 176.84375 330.746094 C 175.449219 331.664062 173.359375 332.050781 173.070312 332.097656 C 173.03125 332.105469 172.992188 332.109375 172.953125 332.109375 C 172.617188 332.109375 172.320312 331.867188 172.261719 331.523438 C 172.199219 331.140625 172.457031 330.777344 172.835938 330.714844 C 174 330.519531 176.058594 329.90625 176.621094 329.105469 C 176.640625 329.078125 176.667969 329.0625 176.691406 329.039062 C 176.703125 329.027344 176.699219 329.011719 176.710938 329 C 176.710938 329 177.277344 328.398438 177.535156 326.875 C 177.621094 326.351562 177.59375 325.957031 177.539062 325.625 C 176.0625 326.910156 173.566406 327.242188 173.222656 327.277344 C 173.199219 327.28125 173.171875 327.28125 173.148438 327.28125 C 172.792969 327.28125 172.492188 327.015625 172.453125 326.65625 C 172.410156 326.273438 172.6875 325.925781 173.070312 325.882812 C 173.941406 325.785156 176.554688 325.226562 177.113281 323.972656 C 177.113281 323.972656 177.113281 323.972656 177.113281 323.96875 C 177.492188 323.125 178.0625 321.488281 177.980469 320.6875 C 177.929688 320.230469 177.6875 319.75 177.429688 319.355469 C 175.949219 321.277344 173.246094 321.65625 173.117188 321.675781 C 173.085938 321.679688 173.054688 321.679688 173.023438 321.679688 C 172.679688 321.679688 172.378906 321.425781 172.332031 321.070312 C 172.277344 320.6875 172.550781 320.335938 172.933594 320.285156 C 172.960938 320.28125 175.839844 319.867188 176.707031 317.839844 C 176.71875 317.820312 176.734375 317.808594 176.746094 317.789062 C 176.75 317.78125 176.746094 317.765625 176.75 317.757812 C 177.433594 316.613281 177.1875 314.777344 176.835938 313.457031 C 176.097656 314.316406 174.878906 315.371094 173.160156 315.675781 C 170.519531 316.144531 156.320312 319.097656 156.179688 319.128906 C 155.804688 319.214844 155.441406 318.972656 155.351562 318.605469 L 154.210938 313.808594 C 149.941406 315.390625 146.859375 323.363281 146.828125 323.445312 C 146.769531 323.59375 146.664062 323.71875 146.527344 323.800781 L 83.160156 361.484375 C 84.605469 364.46875 92.066406 378.363281 104.609375 376.40625 C 121.15625 373.832031 152.324219 341.105469 152.636719 340.777344 C 152.761719 340.644531 152.9375 340.566406 153.121094 340.558594 C 153.234375 340.550781 164.660156 340.070312 171.527344 336.734375 Z M 121.574219 270.613281 C 129.589844 272.207031 132.871094 271.023438 132.902344 271.011719 C 133.121094 270.929688 133.371094 270.960938 133.5625 271.097656 C 133.753906 271.234375 133.863281 271.457031 133.855469 271.691406 C 133.851562 271.824219 133.714844 275.003906 131.625 276.730469 C 130.765625 277.441406 129.714844 277.800781 128.496094 277.800781 C 128.152344 277.800781 127.789062 277.769531 127.414062 277.710938 C 121.558594 276.800781 120.75 271.453125 120.746094 271.398438 C 120.714844 271.175781 120.792969 270.949219 120.957031 270.792969 C 121.121094 270.636719 121.355469 270.566406 121.574219 270.613281 Z M 122.40625 272.199219 C 122.898438 273.535156 124.226562 275.796875 127.632812 276.324219 C 128.902344 276.523438 129.945312 276.296875 130.726562 275.652344 C 131.71875 274.835938 132.144531 273.5 132.324219 272.59375 C 130.816406 272.871094 127.671875 273.136719 122.40625 272.199219 Z M 306.285156 344.746094 C 310.40625 355.894531 307.9375 369.054688 300 378.277344 C 292.273438 387.253906 279.984375 391.921875 267.917969 390.433594 C 265.542969 390.140625 263.183594 389.601562 260.886719 388.84375 C 259.835938 397.160156 254.742188 405 247.511719 409.0625 C 243.625 411.246094 239.199219 412.324219 234.78125 412.324219 C 229.652344 412.328125 224.539062 410.867188 220.304688 407.988281 C 217.386719 406.007812 214.8125 403.378906 212.601562 400.128906 C 207.816406 402.746094 201.882812 403.359375 196.738281 401.558594 C 190.1875 399.273438 185.0625 393.128906 183.988281 386.269531 C 183.925781 385.886719 184.1875 385.527344 184.570312 385.46875 C 184.964844 385.410156 185.3125 385.671875 185.375 386.054688 C 186.371094 392.414062 191.125 398.113281 197.199219 400.234375 C 201.941406 401.890625 207.40625 401.34375 211.832031 398.949219 C 209.949219 395.941406 208.355469 392.445312 207.050781 388.484375 C 206.417969 386.554688 204.6875 380.070312 208.957031 377.550781 C 209.816406 377.042969 210.886719 376.765625 212.050781 376.75 C 212.085938 376.75 212.121094 376.75 212.152344 376.75 C 216.597656 376.75 220.667969 380.652344 221.253906 385.496094 C 221.761719 389.679688 219.882812 394.179688 216.234375 397.535156 C 215.480469 398.226562 214.667969 398.851562 213.808594 399.40625 C 215.910156 402.480469 218.34375 404.957031 221.09375 406.828125 C 228.542969 411.890625 238.882812 412.300781 246.824219 407.839844 C 253.765625 403.9375 258.621094 396.363281 259.53125 388.367188 C 251.207031 385.269531 243.761719 379.269531 239.054688 371.570312 C 236.859375 367.980469 236.007812 363.355469 239.050781 361.109375 C 241.027344 359.652344 244.011719 359.894531 247.238281 361.777344 C 255.542969 366.613281 260.980469 375.875 261.089844 385.378906 C 261.097656 386.058594 261.078125 386.734375 261.03125 387.410156 C 263.332031 388.191406 265.699219 388.746094 268.089844 389.039062 C 279.511719 390.4375 291.625 385.855469 298.9375 377.363281 C 306.429688 368.65625 308.855469 355.742188 304.96875 345.230469 C 304.835938 344.867188 305.019531 344.460938 305.382812 344.328125 C 305.746094 344.191406 306.148438 344.378906 306.285156 344.746094 Z M 213.042969 398.234375 C 213.835938 397.722656 214.589844 397.140625 215.285156 396.503906 C 218.601562 393.453125 220.3125 389.402344 219.859375 385.664062 C 219.367188 381.574219 215.847656 378.15625 212.152344 378.15625 C 212.125 378.15625 212.097656 378.15625 212.070312 378.15625 C 211.148438 378.167969 210.320312 378.375 209.671875 378.761719 C 206.304688 380.746094 207.835938 386.371094 208.386719 388.046875 C 209.65625 391.914062 211.210938 395.316406 213.042969 398.234375 Z M 259.683594 385.398438 C 259.582031 376.378906 254.417969 367.582031 246.53125 362.988281 C 245.644531 362.472656 243.835938 361.566406 242.101562 361.566406 C 241.316406 361.566406 240.550781 361.75 239.886719 362.238281 C 237.570312 363.949219 238.453125 367.894531 240.253906 370.839844 C 244.730469 378.160156 251.765625 383.890625 259.652344 386.917969 C 259.679688 386.410156 259.691406 385.902344 259.683594 385.398438 Z M 259.683594 385.398438 " fill-opacity="1" fill-rule="nonzero"/></g><g clip-path="url(#2f1d64e70e)"><g clip-path="url(#d6f35967d0)"><g clip-path="url(#bdbb2d9c07)"><path fill="#004aad" d="M 29.601562 -283.246094 L 1172.992188 29.859375 L 1098.222656 302.90625 L -45.167969 -10.195312 Z M 29.601562 -283.246094 " fill-opacity="1" fill-rule="nonzero"/></g></g></g></svg>