<svg xmlns="http://www.w3.org/2000/svg" xmlns:xlink="http://www.w3.org/1999/xlink" width="1366" zoomAndPan="magnify" viewBox="0 0 1024.5 576" height="768" preserveAspectRatio="xMidYMid meet" version="1.0"><defs><filter x="0%" y="0%" width="100%" height="100%" id="7c6d1eae00"><feColorMatrix values="0 0 0 0 1 0 0 0 0 1 0 0 0 0 1 0 0 0 1 0" color-interpolation-filters="sRGB"/></filter><clipPath id="333108dbc1"><path d="M 0 0.140625 L 1024 0.140625 L 1024 575.859375 L 0 575.859375 Z M 0 0.140625 " clip-rule="nonzero"/></clipPath><mask id="af9910c96b"><g filter="url(#7c6d1eae00)"><rect x="-102.45" width="1229.4" fill="#000000" y="-57.6" height="691.2" fill-opacity="0.19"/></g></mask><clipPath id="82054a043a"><path d="M 0.605469 223 L 410.652344 223 L 410.652344 317.808594 L 0.605469 317.808594 Z M 0.605469 223 " clip-rule="nonzero"/></clipPath><clipPath id="ba02b903df"><rect x="0" width="411" y="0" height="318"/></clipPath></defs><g clip-path="url(#333108dbc1)"><path fill="#ffffff" d="M 0 0.140625 L 1024 0.140625 L 1024 575.859375 L 0 575.859375 Z M 0 0.140625 " fill-opacity="1" fill-rule="nonzero"/><path fill="#2385c4" d="M 0 0.140625 L 1024 0.140625 L 1024 575.859375 L 0 575.859375 Z M 0 0.140625 " fill-opacity="1" fill-rule="nonzero"/></g><g mask="url(#af9910c96b)"><g transform="matrix(1, 0, 0, 1, 575, 57)"><g clip-path="url(#ba02b903df)"><path fill="#5a3245" d="M 304.449219 63.902344 L 304.449219 268.09375 L 112.476562 268.09375 L 112.476562 63.902344 C 112.476562 55.683594 119.128906 49.027344 127.339844 49.027344 L 289.503906 49.027344 C 297.796875 49.027344 304.449219 55.683594 304.449219 63.902344 Z M 304.449219 63.902344 " fill-opacity="1" fill-rule="nonzero"/><g clip-path="url(#82054a043a)"><path fill="#aa584a" d="M 410.613281 229.886719 L 410.613281 311.398438 C 410.613281 314.933594 407.742188 317.808594 404.210938 317.808594 L 7.046875 317.808594 C 3.515625 317.808594 0.644531 314.933594 0.644531 311.398438 L 0.644531 229.886719 C 0.644531 226.351562 3.515625 223.476562 7.046875 223.476562 L 127.175781 223.476562 C 127.503906 224.378906 127.832031 225.285156 128.242188 226.269531 C 130.539062 232.1875 131.199219 238.84375 137.683594 241.964844 C 141.132812 243.609375 145.238281 243.527344 148.769531 245.003906 C 153.695312 247.058594 156.816406 251.742188 160.839844 255.195312 C 166.175781 259.632812 173.320312 261.765625 180.214844 261.027344 C 185.226562 260.453125 189.988281 258.480469 194.75 256.917969 C 203.699219 254.042969 213.140625 252.8125 222.503906 253.222656 C 231.78125 253.632812 241.058594 255.6875 250.335938 255.03125 C 259.617188 254.453125 269.46875 250.511719 273.902344 242.292969 C 276.039062 238.265625 276.695312 233.5 279.074219 229.558594 C 280.390625 227.339844 282.195312 225.53125 283.757812 223.476562 L 404.210938 223.476562 C 407.742188 223.476562 410.613281 226.351562 410.613281 229.886719 Z M 410.613281 229.886719 " fill-opacity="1" fill-rule="nonzero"/></g><path fill="#d08e6c" d="M 220.449219 72.695312 L 264.953125 78.363281 C 283.675781 80.746094 297.714844 96.769531 297.46875 115.667969 L 296.566406 198.824219 C 296.320312 218.628906 279.488281 234.074219 259.863281 232.597656 L 173.074219 226.105469 L 170.9375 223.394531 L 164.207031 225.449219 C 145.238281 247.058594 120.605469 226.597656 120.933594 206.054688 C 121.097656 193.976562 122.738281 158.5625 124.136719 131.28125 C 125.121094 110.902344 139.492188 93.566406 159.359375 88.882812 L 190.070312 81.566406 Z M 287.863281 301.457031 L 271.933594 237.691406 L 149.34375 237.035156 L 132.347656 301.457031 L 135.46875 307.453125 L 284.578125 307.453125 Z M 357.984375 262.179688 C 342.875 262.179688 330.640625 263.984375 330.640625 266.203125 C 330.640625 268.421875 342.875 270.230469 357.984375 270.230469 C 373.089844 270.230469 385.324219 268.421875 385.324219 266.203125 C 385.324219 263.984375 373.089844 262.179688 357.984375 262.179688 Z M 357.984375 262.179688 " fill-opacity="1" fill-rule="nonzero"/><path fill="#aa584a" d="M 171.59375 61.273438 C 168.0625 37.9375 176.933594 0.710938 219.21875 4.902344 C 260.4375 9.011719 260.519531 57 239.5 82.882812 L 252.882812 120.105469 L 225.210938 128.160156 L 224.144531 135.964844 L 204.519531 152.726562 L 221.351562 134.320312 L 222.421875 126.105469 L 245.738281 119.367188 L 239.089844 83.210938 C 238.515625 83.867188 238.019531 84.527344 237.445312 85.101562 L 201.070312 78.773438 Z M 155.828125 131.609375 C 156.078125 133.582031 155.253906 154.78125 155.253906 154.78125 L 142.199219 183.128906 L 164.207031 146.894531 C 164.207031 146.894531 156.570312 133.253906 155.828125 131.609375 Z M 155.828125 131.609375 C 155.828125 131.527344 155.828125 131.445312 155.746094 131.445312 C 155.746094 131.445312 155.746094 131.527344 155.828125 131.609375 Z M 164.207031 225.449219 L 173.074219 226.105469 C 183.664062 204.082031 185.0625 175.816406 185.0625 175.816406 C 185.0625 175.816406 178.984375 210.574219 164.207031 225.449219 Z M 249.105469 183.128906 L 251.324219 145.003906 C 250.996094 145.742188 242.375 185.429688 242.375 185.429688 L 185.0625 200.960938 L 268.894531 186.746094 Z M 157.0625 118.214844 L 165.191406 99.070312 L 151.890625 119.859375 L 171.59375 129.144531 Z M 191.382812 146.894531 L 204.519531 152.644531 L 192.121094 143.03125 Z M 191.382812 146.894531 " fill-opacity="1" fill-rule="nonzero"/><path fill="#f1bba1" d="M 203.371094 250.015625 L 289.339844 285.105469 L 279.898438 297.921875 L 140.96875 297.921875 L 134.890625 285.433594 Z M 203.371094 250.015625 " fill-opacity="1" fill-rule="nonzero"/><path fill="#d08e6c" d="M 215.851562 274.011719 L 234.082031 251.742188 L 282.277344 285.433594 C 282.277344 285.433594 209.367188 283.460938 209.199219 285.105469 Z M 407.660156 208.273438 L 407.660156 208.4375 C 407.660156 215.917969 401.582031 221.996094 394.109375 221.996094 L 382.699219 221.996094 C 375.226562 221.996094 369.148438 215.917969 369.148438 208.4375 L 369.148438 208.273438 L 387.460938 163.820312 L 360.117188 163.820312 L 360.117188 252.398438 L 371.777344 252.398438 C 379.25 252.398438 385.324219 258.480469 385.324219 265.957031 L 385.324219 266.121094 L 330.722656 266.121094 L 330.722656 265.957031 C 330.722656 258.480469 336.796875 252.398438 344.269531 252.398438 L 355.929688 252.398438 L 355.929688 163.820312 L 327.765625 163.820312 C 327.683594 163.820312 327.601562 163.820312 327.519531 163.820312 L 345.996094 208.273438 L 345.996094 208.4375 C 345.996094 215.917969 339.917969 221.996094 332.445312 221.996094 L 321.035156 221.996094 C 313.5625 221.996094 307.484375 215.917969 307.484375 208.4375 L 307.484375 208.273438 L 326.125 163 C 325.878906 162.671875 325.714844 162.257812 325.714844 161.847656 L 325.714844 161.765625 C 325.714844 160.699219 326.617188 159.792969 327.683594 159.792969 L 355.847656 159.792969 L 355.847656 146.8125 C 355.847656 145.660156 356.832031 144.675781 357.984375 144.675781 L 358.066406 144.675781 C 359.214844 144.675781 360.199219 145.660156 360.199219 146.8125 L 360.199219 159.792969 L 388.363281 159.792969 C 389.429688 159.792969 390.332031 160.699219 390.332031 161.765625 L 390.332031 161.847656 C 390.332031 162.671875 389.839844 163.410156 389.101562 163.65625 Z M 340.984375 208.273438 L 327.191406 172.367188 C 326.945312 171.789062 326.125 171.707031 325.878906 172.367188 L 311.34375 208.273438 Z M 402.730469 208.273438 L 388.9375 172.367188 C 388.691406 171.789062 387.871094 171.707031 387.625 172.367188 L 373.089844 208.273438 Z M 402.730469 208.273438 " fill-opacity="1" fill-rule="nonzero"/><path fill="#ebd2bf" d="M 209.367188 283.460938 L 134.890625 285.433594 L 150.65625 226.269531 L 209.199219 226.269531 Z M 209.367188 283.460938 " fill-opacity="1" fill-rule="nonzero"/><path fill="#f1bba1" d="M 213.386719 110.738281 C 213.800781 110.65625 214.128906 110.492188 214.539062 110.328125 L 204.601562 138.019531 L 196.636719 126.105469 C 197.460938 125.199219 198.527344 124.460938 199.675781 123.722656 C 202.058594 122.160156 203.207031 120.1875 204.4375 117.640625 C 205.589844 115.257812 206.65625 112.382812 209.367188 111.476562 C 210.597656 110.984375 211.992188 111.066406 213.386719 110.738281 Z M 206 226.269531 L 203.207031 288.71875 L 209.367188 283.460938 L 209.199219 226.269531 Z M 208.707031 45.332031 C 194.75 62.585938 171.59375 60.449219 171.59375 60.449219 C 171.59375 60.449219 172.25 66.121094 174.386719 73.433594 L 163.792969 76.226562 C 161.90625 76.71875 160.675781 78.363281 160.675781 80.335938 L 160.675781 93.730469 C 160.675781 96.851562 161.660156 99.808594 163.464844 102.355469 L 175.453125 119.203125 C 176.769531 121.09375 176.933594 123.558594 175.863281 125.609375 L 164.289062 146.894531 L 177.015625 158.726562 L 189.085938 158.726562 L 195.160156 128.652344 C 196.964844 122.40625 195.570312 115.667969 191.382812 110.738281 L 174.878906 91.101562 L 180.710938 89.046875 C 184.734375 96.113281 190.398438 102.355469 198.363281 104.492188 C 220.613281 110.410156 237.527344 85.183594 237.527344 85.183594 C 219.136719 79.183594 208.707031 45.332031 208.707031 45.332031 Z M 208.707031 45.332031 " fill-opacity="1" fill-rule="nonzero"/><path fill="#ebd2bf" d="M 189.003906 158.726562 L 185.0625 175.816406 L 157.0625 159.054688 L 164.207031 146.894531 Z M 273.65625 226.269531 C 245.984375 229.0625 225.703125 206.46875 209.117188 226.269531 L 209.117188 285.105469 C 229.726562 260.453125 254.9375 288.636719 289.339844 285.105469 Z M 273.65625 226.269531 " fill-opacity="1" fill-rule="nonzero"/></g></g></g></svg>